<?xml version="1.0" encoding="utf-8"?>
<!-- Generator: Adobe Illustrator 26.1.0, SVG Export Plug-In . SVG Version: 6.00 Build 0)  -->
<svg version="1.1" id="Layer_1" xmlns="http://www.w3.org/2000/svg" xmlns:xlink="http://www.w3.org/1999/xlink" x="0px" y="0px"
	 viewBox="0 0 82 3168" style="enable-background:new 0 0 82 3168;" xml:space="preserve">
<style type="text/css">
	.st0{fill-rule:evenodd;clip-rule:evenodd;fill:#EEEEEE;stroke:#FFFFFF;stroke-width:4;}
	.st1{fill-rule:evenodd;clip-rule:evenodd;fill:#FF4B4B;}
	.st2{fill-rule:evenodd;clip-rule:evenodd;fill:#1CB0F6;}
	.st3{fill:#FFFFFF;}
	.st4{fill-rule:evenodd;clip-rule:evenodd;fill:#FF4B4B;stroke:#FFFFFF;stroke-width:4;}
	.st5{fill-rule:evenodd;clip-rule:evenodd;fill:#FFC800;}
	.st6{fill-rule:evenodd;clip-rule:evenodd;fill:#FFFFFF;}
	.st7{fill:#EEEEEE;stroke:#FFFFFF;stroke-width:4;}
	.st8{fill:#1CB0F6;}
	.st9{fill:#FF4B4B;}
	.st10{fill:#FF4B4B;stroke:#FFFFFF;stroke-width:4;}
	.st11{fill:#FFC800;}
	.st12{fill:#4C4C4C;}
	.st13{fill:#78C800;}
	.st14{fill:#FFC300;}
	.st15{fill:#1CB0F6;stroke:#FFFFFF;stroke-width:4;}
	.st16{fill:#EEEEEE;}
	.st17{fill:#78C800;stroke:#FFFFFF;stroke-width:4;}
	.st18{fill:#FF9600;}
	.st19{fill-rule:evenodd;clip-rule:evenodd;fill:#EEEEEE;}
	.st20{fill:#4B4B4B;stroke:#FFFFFF;stroke-width:4;}
	.st21{fill:#FFC300;stroke:#FFFFFF;stroke-width:4;}
	.st22{fill:#7AC70C;}
	.st23{fill:#4B4B4B;}
	.st24{fill:#7AC70C;stroke:#FFFFFF;stroke-width:4;}
	.st25{fill-rule:evenodd;clip-rule:evenodd;fill:#1899D6;}
	.st26{fill:#1899D6;}
	.st27{fill:#FFCE8E;stroke:#FFFFFF;stroke-width:4;}
	.st28{fill:none;stroke:#FFFFFF;stroke-width:3.2;}
	.st29{fill:none;stroke:#7AC70C;stroke-width:6.4;stroke-linecap:round;stroke-linejoin:round;}
	.st30{fill:none;stroke:#FFFFFF;}
	.st31{fill-rule:evenodd;clip-rule:evenodd;fill:#7AC70C;}
	
		.st32{fill-rule:evenodd;clip-rule:evenodd;fill:#FFFFFF;stroke:#FFFFFF;stroke-width:0.7587;stroke-linecap:round;stroke-linejoin:round;}
	.st33{fill-rule:evenodd;clip-rule:evenodd;fill:#FFD300;}
	.st34{fill:#FFC800;stroke:#FFFFFF;stroke-width:4;}
	.st35{fill-rule:evenodd;clip-rule:evenodd;fill:#FF9600;}
	.st36{fill:#8EE000;}
	.st37{fill-rule:evenodd;clip-rule:evenodd;fill:#8EE000;}
	.st38{fill-rule:evenodd;clip-rule:evenodd;fill:#4B4B4B;}
	.st39{fill-rule:evenodd;clip-rule:evenodd;fill:#F48000;}
	.st40{fill:#FFC200;}
	.st41{fill-rule:evenodd;clip-rule:evenodd;fill:#FFE747;}
	.st42{fill:#C7C7C7;}
	.st43{fill:#F34848;}
	.st44{fill:#D73A3A;}
	.st45{fill:#D8D8D8;}
	.st46{fill-rule:evenodd;clip-rule:evenodd;fill:#A560E8;}
	.st47{fill-rule:evenodd;clip-rule:evenodd;fill:#8F50D8;}
	.st48{fill-rule:evenodd;clip-rule:evenodd;fill:#FFD836;}
	.st49{fill-rule:evenodd;clip-rule:evenodd;fill:#FFC715;}
	.st50{fill-rule:evenodd;clip-rule:evenodd;fill:#2788E0;}
	.st51{fill-rule:evenodd;clip-rule:evenodd;fill:#4495FF;}
	.st52{fill-rule:evenodd;clip-rule:evenodd;fill:#723A0F;}
	.st53{fill-rule:evenodd;clip-rule:evenodd;fill:#97501A;}
	.st54{fill-rule:evenodd;clip-rule:evenodd;fill:#FD937E;}
	.st55{fill:none;stroke:#97501A;stroke-width:2.3306;stroke-linecap:round;stroke-linejoin:round;}
	.st56{fill:none;stroke:#97501A;stroke-width:1.4568;stroke-linecap:round;stroke-linejoin:round;}
	.st57{fill-rule:evenodd;clip-rule:evenodd;fill:#FFB5A1;}
	.st58{fill-rule:evenodd;clip-rule:evenodd;fill:#E58D7F;}
	.st59{fill-rule:evenodd;clip-rule:evenodd;fill:#FF9D8A;}
	.st60{fill:none;stroke:#97501A;stroke-width:2;}
	.st61{fill-rule:evenodd;clip-rule:evenodd;fill:#FFB5A1;stroke:#97501A;stroke-width:3;}
	.st62{fill-rule:evenodd;clip-rule:evenodd;fill:#FFCBBD;}
	.st63{fill:#F9F9F9;}
	.st64{fill:#039CE5;}
	.st65{fill:none;stroke:#FFD300;stroke-width:2.6452;stroke-linecap:round;stroke-linejoin:round;}
	.st66{fill:none;stroke:#FFFFFF;stroke-width:4;}
	.st67{filter:url(#Adobe_OpacityMaskFilter);}
	.st68{mask:url(#mask-2_00000094620566565056353830000002978330543736344247_);fill:#EEEEEE;}
	.st69{fill:#1254A9;stroke:#FFFFFF;stroke-width:4.0195;}
	.st70{fill:#1254A9;}
	.st71{fill:#47A600;}
	.st72{fill:#FFD900;}
	.st73{fill-rule:evenodd;clip-rule:evenodd;fill:#FFD900;}
	.st74{fill-rule:evenodd;clip-rule:evenodd;fill:#47A600;}
</style>
<g id="en">
	<g id="Group" transform="translate(6.000000, 6.000000)">
		<path id="Rectangle-3" class="st0" d="M57.4-2H12.6C7.6-2,5.9-1.4,4.1-0.5c-2,1-3.5,2.6-4.5,4.5C-1.4,5.9-2,7.6-2,12.6v28.9
			c0,4.9,0.6,6.7,1.5,8.5c1,2,2.6,3.5,4.5,4.5c1.8,1,3.6,1.5,8.5,1.5h44.9c4.9,0,6.7-0.6,8.5-1.5c2-1,3.5-2.6,4.5-4.5
			c1-1.8,1.5-3.6,1.5-8.5V12.6c0-4.9-0.6-6.7-1.5-8.5c-1-2-2.6-3.5-4.5-4.5C64.1-1.4,62.4-2,57.4-2z"/>
		<path id="Path" class="st1" d="M12.6,0h44.9c4.4,0,6,0.5,7.5,1.3c1.6,0.9,2.9,2.1,3.7,3.7c0.2,0.3,0.3,0.6,0.5,1H0.8
			C1,5.7,1.1,5.3,1.3,5C2.2,3.4,3.4,2.2,5,1.3S8.2,0,12.6,0z"/>
		<path id="Path_00000152984041016436368200000004562337328006651819_" class="st1" d="M70,12c0,0.2,0,0.4,0,0.6V18H0v-5.4
			c0-0.2,0-0.4,0-0.6H70z"/>
		<polygon id="Path_00000159428852558985017080000012943537903775759778_" class="st1" points="70,24 70,30 0,30 0,24 		"/>
		<path id="Path_00000121994029590827104390000010329315522980483738_" class="st1" d="M70,41.4c0,0.2,0,0.4,0,0.6H0
			c0-0.2,0-0.4,0-0.6V36h70V41.4z"/>
		<path id="Path_00000180339122378710088630000005354959653795333541_" class="st1" d="M69.2,48c-0.1,0.3-0.3,0.7-0.5,1
			c-0.9,1.6-2.1,2.9-3.7,3.7c-1.6,0.9-3.2,1.3-7.5,1.3H12.6c-4.4,0-6-0.5-7.5-1.3c-1.6-0.9-2.9-2.1-3.7-3.7c-0.2-0.3-0.3-0.6-0.5-1
			H69.2z"/>
		<path id="Path_00000018234858243844701940000007704456471433427611_" class="st2" d="M12.6,0H35v24H0V12.6c0-4.4,0.5-6,1.3-7.5
			S3.4,2.2,5,1.3S8.2,0,12.6,0z"/>
		<path id="Star-Copy" class="st3" d="M27.8,9.6l-1.3,0.7c-0.4,0.2-0.9,0.1-1.1-0.3c-0.1-0.2-0.1-0.3-0.1-0.5L25.6,8
			c0-0.1,0-0.3-0.1-0.4l-1-1c-0.3-0.3-0.3-0.8,0-1.2c0.1-0.1,0.3-0.2,0.5-0.2L26.3,5c0.1,0,0.3-0.1,0.3-0.2l0.6-1.3
			c0.2-0.4,0.7-0.6,1.1-0.4c0.2,0.1,0.3,0.2,0.4,0.4l0.6,1.3C29.4,4.9,29.6,5,29.7,5l1.4,0.2c0.4,0.1,0.8,0.5,0.7,0.9
			c0,0.2-0.1,0.3-0.2,0.5l-1,1c-0.1,0.1-0.1,0.2-0.1,0.4l0.2,1.4c0.1,0.4-0.2,0.9-0.7,0.9c-0.2,0-0.4,0-0.5-0.1l-1.3-0.7
			C28.1,9.5,27.9,9.5,27.8,9.6z"/>
		<path id="Star-Copy-4" class="st3" d="M27.8,19.6l-1.3,0.7c-0.4,0.2-0.9,0.1-1.1-0.3c-0.1-0.2-0.1-0.3-0.1-0.5l0.2-1.4
			c0-0.1,0-0.3-0.1-0.4l-1-1c-0.3-0.3-0.3-0.8,0-1.2c0.1-0.1,0.3-0.2,0.5-0.2l1.4-0.2c0.1,0,0.3-0.1,0.3-0.2l0.6-1.3
			c0.2-0.4,0.7-0.6,1.1-0.4c0.2,0.1,0.3,0.2,0.4,0.4l0.6,1.3c0.1,0.1,0.2,0.2,0.3,0.2l1.4,0.2c0.4,0.1,0.8,0.5,0.7,0.9
			c0,0.2-0.1,0.3-0.2,0.5l-1,1c-0.1,0.1-0.1,0.2-0.1,0.4l0.2,1.4c0.1,0.4-0.2,0.9-0.7,0.9c-0.2,0-0.4,0-0.5-0.1l-1.3-0.7
			C28.1,19.5,27.9,19.5,27.8,19.6z"/>
		<path id="Star-Copy-2" class="st3" d="M17.8,9.6l-1.3,0.7c-0.4,0.2-0.9,0.1-1.1-0.3c-0.1-0.2-0.1-0.3-0.1-0.5L15.6,8
			c0-0.1,0-0.3-0.1-0.4l-1-1c-0.3-0.3-0.3-0.8,0-1.2c0.1-0.1,0.3-0.2,0.5-0.2L16.3,5c0.1,0,0.3-0.1,0.3-0.2l0.6-1.3
			c0.2-0.4,0.7-0.6,1.1-0.4c0.2,0.1,0.3,0.2,0.4,0.4l0.6,1.3C19.4,4.9,19.6,5,19.7,5l1.4,0.2c0.4,0.1,0.8,0.5,0.7,0.9
			c0,0.2-0.1,0.3-0.2,0.5l-1,1c-0.1,0.1-0.1,0.2-0.1,0.4l0.2,1.4c0.1,0.4-0.2,0.9-0.7,0.9c-0.2,0-0.4,0-0.5-0.1l-1.3-0.7
			C18.1,9.5,17.9,9.5,17.8,9.6z"/>
		<path id="Star-Copy-5" class="st3" d="M17.8,19.6l-1.3,0.7c-0.4,0.2-0.9,0.1-1.1-0.3c-0.1-0.2-0.1-0.3-0.1-0.5l0.2-1.4
			c0-0.1,0-0.3-0.1-0.4l-1-1c-0.3-0.3-0.3-0.8,0-1.2c0.1-0.1,0.3-0.2,0.5-0.2l1.4-0.2c0.1,0,0.3-0.1,0.3-0.2l0.6-1.3
			c0.2-0.4,0.7-0.6,1.1-0.4c0.2,0.1,0.3,0.2,0.4,0.4l0.6,1.3c0.1,0.1,0.2,0.2,0.3,0.2l1.4,0.2c0.4,0.1,0.8,0.5,0.7,0.9
			c0,0.2-0.1,0.3-0.2,0.5l-1,1c-0.1,0.1-0.1,0.2-0.1,0.4l0.2,1.4c0.1,0.4-0.2,0.9-0.7,0.9c-0.2,0-0.4,0-0.5-0.1l-1.3-0.7
			C18.1,19.5,17.9,19.5,17.8,19.6z"/>
		<path id="Star-Copy-3" class="st3" d="M7.8,9.6l-1.3,0.7c-0.4,0.2-0.9,0.1-1.1-0.3C5.3,9.8,5.3,9.6,5.3,9.4L5.6,8
			c0-0.1,0-0.3-0.1-0.4l-1-1c-0.3-0.3-0.3-0.8,0-1.2c0.1-0.1,0.3-0.2,0.5-0.2L6.3,5c0.1,0,0.3-0.1,0.3-0.2l0.6-1.3
			C7.5,3.1,8,2.9,8.4,3.1c0.2,0.1,0.3,0.2,0.4,0.4l0.6,1.3C9.4,4.9,9.6,5,9.7,5l1.4,0.2c0.4,0.1,0.8,0.5,0.7,0.9
			c0,0.2-0.1,0.3-0.2,0.5l-1,1c-0.1,0.1-0.1,0.2-0.1,0.4l0.2,1.4c0.1,0.4-0.2,0.9-0.7,0.9c-0.2,0-0.4,0-0.5-0.1L8.2,9.6
			C8.1,9.5,7.9,9.5,7.8,9.6z"/>
		<path id="Star-Copy-6" class="st3" d="M7.8,19.6l-1.3,0.7c-0.4,0.2-0.9,0.1-1.1-0.3c-0.1-0.2-0.1-0.3-0.1-0.5L5.6,18
			c0-0.1,0-0.3-0.1-0.4l-1-1c-0.3-0.3-0.3-0.8,0-1.2c0.1-0.1,0.3-0.2,0.5-0.2L6.3,15c0.1,0,0.3-0.1,0.3-0.2l0.6-1.3
			c0.2-0.4,0.7-0.6,1.1-0.4c0.2,0.1,0.3,0.2,0.4,0.4l0.6,1.3C9.4,14.9,9.6,15,9.7,15l1.4,0.2c0.4,0.1,0.8,0.5,0.7,0.9
			c0,0.2-0.1,0.3-0.2,0.5l-1,1c-0.1,0.1-0.1,0.2-0.1,0.4l0.2,1.4c0.1,0.4-0.2,0.9-0.7,0.9c-0.2,0-0.4,0-0.5-0.1l-1.3-0.7
			C8.1,19.5,7.9,19.5,7.8,19.6z"/>
	</g>
</g>
<g id="es">
	<g id="Group_00000178922869015280137650000018096854808143818129_" transform="translate(6.000000, 6.000000)">
		<path id="Rectangle-3_00000168796555322469196200000012726514031877139614_" class="st4" d="M57.4,64H12.6c-4.9,0-6.7,0.6-8.5,1.5
			c-2,1-3.5,2.6-4.5,4.5c-1,1.8-1.5,3.6-1.5,8.5v28.9c0,4.9,0.6,6.7,1.5,8.5c1,2,2.6,3.5,4.5,4.5c1.8,1,3.6,1.5,8.5,1.5h44.9
			c4.9,0,6.7-0.6,8.5-1.5c2-1,3.5-2.6,4.5-4.5c1-1.8,1.5-3.6,1.5-8.5V78.6c0-4.9-0.6-6.7-1.5-8.5c-1-2-2.6-3.5-4.5-4.5
			C64.1,64.6,62.4,64,57.4,64z"/>
		<polygon id="Rectangle-4" class="st5" points="0,81.4 70,81.4 70,104.6 0,104.6 		"/>
		<path id="Rectangle-14" class="st6" d="M27.2,87.2c1.1,0,1.9,0.9,1.9,1.9v7.7c0,1.1-0.9,1.9-1.9,1.9c-1.1,0-1.9-0.9-1.9-1.9v-7.7
			C25.3,88.1,26.1,87.2,27.2,87.2z"/>
		<path id="Rectangle-14-Copy" class="st6" d="M7.8,87.2c1.1,0,1.9,0.9,1.9,1.9v7.7c0,1.1-0.9,1.9-1.9,1.9s-1.9-0.9-1.9-1.9v-7.7
			C5.8,88.1,6.7,87.2,7.8,87.2z"/>
		<path id="Rectangle-15" class="st1" d="M13.4,85.3h8.2c1,0,1.8,0.8,1.8,1.8v7.8c0,3.2-2.6,5.8-5.8,5.8s-5.8-2.6-5.8-5.8V87
			C11.7,86.1,12.5,85.3,13.4,85.3z"/>
	</g>
</g>
<g id="fr">
	<g id="Group_00000016779775953041231930000009433635837754659203_" transform="translate(6.000000, 6.000000)">
		<path id="Rectangle-3_00000060746216610956243360000012036930887673043624_" class="st7" d="M57.4,130H12.6
			c-4.9,0-6.7,0.6-8.5,1.5c-2,1-3.5,2.6-4.5,4.5c-1,1.8-1.5,3.6-1.5,8.5v28.9c0,4.9,0.6,6.7,1.5,8.5c1,2,2.6,3.5,4.5,4.5
			c1.8,1,3.6,1.5,8.5,1.5h44.9c4.9,0,6.7-0.6,8.5-1.5c2-1,3.5-2.6,4.5-4.5c1-1.8,1.5-3.6,1.5-8.5v-28.9c0-4.9-0.6-6.7-1.5-8.5
			c-1-2-2.6-3.5-4.5-4.5C64.1,130.6,62.4,130,57.4,130z"/>
		<path id="Path_00000177474671901858310120000015450111859528387758_" class="st8" d="M23.6,132v54H12.6c-4.4,0-6-0.5-7.5-1.3
			c-1.6-0.9-2.9-2.1-3.7-3.7c-0.9-1.6-1.3-3.2-1.3-7.5v-28.9c0-4.4,0.5-6,1.3-7.5c0.9-1.6,2.1-2.9,3.7-3.7c1.6-0.9,3.2-1.3,7.5-1.3
			H23.6z"/>
		<path id="Path_00000064344884105146345940000000419986896882882185_" class="st9" d="M46.4,132h11.1c4.4,0,6,0.5,7.5,1.3
			c1.6,0.9,2.9,2.1,3.7,3.7c0.9,1.6,1.3,3.2,1.3,7.5v28.9c0,4.4-0.5,6-1.3,7.5c-0.9,1.6-2.1,2.9-3.7,3.7c-1.6,0.9-3.2,1.3-7.5,1.3
			H46.4V132z"/>
	</g>
</g>
<g id="de">
	<g id="Group_00000050633315387884753900000007854919145596193210_" transform="translate(6.000000, 6.000000)">
		<path id="Rectangle-3_00000158026800590804351040000000415007698009365940_" class="st10" d="M57.4,196H12.6
			c-4.9,0-6.7,0.6-8.5,1.5c-2,1-3.5,2.6-4.5,4.5c-1,1.8-1.5,3.6-1.5,8.5v28.9c0,4.9,0.6,6.7,1.5,8.5c1,2,2.6,3.5,4.5,4.5
			c1.8,1,3.6,1.5,8.5,1.5h44.9c4.9,0,6.7-0.6,8.5-1.5c2-1,3.5-2.6,4.5-4.5c1-1.8,1.5-3.6,1.5-8.5v-28.9c0-4.9-0.6-6.7-1.5-8.5
			c-1-2-2.6-3.5-4.5-4.5C64.1,196.6,62.4,196,57.4,196z"/>
		<path id="Path_00000145740836264801684810000013062960176537957520_" class="st11" d="M70,234v5.4c0,4.4-0.5,6-1.3,7.5
			c-0.9,1.6-2.1,2.9-3.7,3.7c-1.6,0.9-3.2,1.3-7.5,1.3H12.6c-4.4,0-6-0.5-7.5-1.3c-1.6-0.9-2.9-2.1-3.7-3.7
			c-0.9-1.6-1.3-3.2-1.3-7.5V234H70z"/>
		<path id="Path_00000085960410442007336100000005211279803634191257_" class="st12" d="M12.6,198h44.9c4.4,0,6,0.5,7.5,1.3
			c1.6,0.9,2.9,2.1,3.7,3.7c0.9,1.6,1.3,3.2,1.3,7.5v5.4H0v-5.4c0-4.4,0.5-6,1.3-7.5c0.9-1.6,2.1-2.9,3.7-3.7
			C6.6,198.5,8.2,198,12.6,198z"/>
	</g>
</g>
<g id="ja">
	<g id="Group_00000148628940489281538670000000172640262549945251_" transform="translate(6.000000, 6.000000)">
		<path id="Rectangle-3_00000018201755052952472820000012169327755249782450_" class="st0" d="M57.4,262H12.6
			c-4.9,0-6.7,0.6-8.5,1.5c-2,1-3.5,2.6-4.5,4.5c-1,1.8-1.5,3.6-1.5,8.5v28.9c0,4.9,0.6,6.7,1.5,8.5c1,2,2.6,3.5,4.5,4.5
			c1.8,1,3.6,1.5,8.5,1.5h44.9c4.9,0,6.7-0.6,8.5-1.5c2-1,3.5-2.6,4.5-4.5c1-1.8,1.5-3.6,1.5-8.5v-28.9c0-4.9-0.6-6.7-1.5-8.5
			c-1-2-2.6-3.5-4.5-4.5C64.1,262.6,62.4,262,57.4,262z"/>
		<circle id="Oval-19" class="st9" cx="35" cy="291" r="14"/>
	</g>
</g>
<g id="it">
	<g id="Group_00000054236873692785353160000016307124745311735486_" transform="translate(6.000000, 6.000000)">
		<path id="Rectangle-3_00000103234543817712716810000011265567611497532349_" class="st7" d="M57.4,328H12.6
			c-4.9,0-6.7,0.6-8.5,1.5c-2,1-3.5,2.6-4.5,4.5c-1,1.8-1.5,3.6-1.5,8.5v28.9c0,4.9,0.6,6.7,1.5,8.5c1,2,2.6,3.5,4.5,4.5
			c1.8,1,3.6,1.5,8.5,1.5h44.9c4.9,0,6.7-0.6,8.5-1.5c2-1,3.5-2.6,4.5-4.5c1-1.8,1.5-3.6,1.5-8.5v-28.9c0-4.9-0.6-6.7-1.5-8.5
			c-1-2-2.6-3.5-4.5-4.5C64.1,328.6,62.4,328,57.4,328z"/>
		<path id="Path_00000012472299738584223100000012366549766362727811_" class="st13" d="M23.6,330v54H12.6c-4.4,0-6-0.5-7.5-1.3
			c-1.6-0.9-2.9-2.1-3.7-3.7S0,375.8,0,371.4v-28.9c0-4.4,0.5-6,1.3-7.5s2.1-2.9,3.7-3.7c1.6-0.9,3.2-1.3,7.5-1.3H23.6z"/>
		<path id="Path_00000141449565033939908080000004536109347319003782_" class="st9" d="M46.4,330h11.1c4.4,0,6,0.5,7.5,1.3
			c1.6,0.9,2.9,2.1,3.7,3.7s1.3,3.2,1.3,7.5v28.9c0,4.4-0.5,6-1.3,7.5s-2.1,2.9-3.7,3.7c-1.6,0.9-3.2,1.3-7.5,1.3H46.4V330z"/>
	</g>
</g>
<g id="ko">
	<g id="Group_00000164515755393343225510000008733517036962868109_" transform="translate(6.000000, 6.000000)">
		<path id="Rectangle-3_00000037681271507192901690000015334667748589180807_" class="st0" d="M57.4,394H12.6
			c-4.9,0-6.7,0.6-8.5,1.5c-2,1-3.5,2.6-4.5,4.5c-1,1.8-1.5,3.6-1.5,8.5v28.9c0,4.9,0.6,6.7,1.5,8.5c1,2,2.6,3.5,4.5,4.5
			c1.8,1,3.6,1.5,8.5,1.5h44.9c4.9,0,6.7-0.6,8.5-1.5c2-1,3.5-2.6,4.5-4.5c1-1.8,1.5-3.6,1.5-8.5v-28.9c0-4.9-0.6-6.7-1.5-8.5
			c-1-2-2.6-3.5-4.5-4.5C64.1,394.6,62.4,394,57.4,394z"/>
		<circle id="Oval-19_00000031891578123189097760000004919129915825919382_" class="st9" cx="35" cy="423" r="13"/>
		<path id="Path_00000031191883336140424390000017409579009880167079_" class="st8" d="M22,423.5c2.2,2.3,4.4,3.5,6.6,3.5
			c2.2,0,4.3-1.2,6.4-3.5c2-2.3,4.1-3.5,6.3-3.5c2.2,0,4.4,1.1,6.6,3.2c-0.1,7.1-5.9,12.8-13,12.8C28,436,22.3,430.4,22,423.5z"/>
		<path id="Path_00000016787868305029018460000005102666209520535715_" class="st12" d="M17.1,443.6l-8.8-8.8
			c-0.5-0.5-0.5-1.3,0-1.9c0.5-0.5,1.3-0.5,1.9,0l8.8,8.8c0.5,0.5,0.5,1.3,0,1.9C18.4,444.1,17.6,444.1,17.1,443.6z"/>
		<path id="Path_00000114050693003812370350000007240945376293062798_" class="st12" d="M56.5,416.4l-3.2-3.2
			c-0.5-0.5-0.5-1.3,0-1.9s1.3-0.5,1.9,0l3.2,3.2c0.5,0.5,0.5,1.3,0,1.9C57.9,417,57,417,56.5,416.4z"/>
		<path id="Path_00000066506670617217611610000004588870960121535674_" class="st12" d="M9.2,413.1c-0.5,0.5-1.3,0.5-1.9,0
			s-0.5-1.3,0-1.9l8.8-8.8c0.5-0.5,1.3-0.5,1.9,0c0.5,0.5,0.5,1.3,0,1.9L9.2,413.1z"/>
		<path id="Path_00000137092959061319724180000013736234856281708963_" class="st12" d="M50.7,410.6l-3-3c-0.5-0.5-0.5-1.3,0-1.9
			s1.3-0.5,1.9,0l3,3c0.5,0.5,0.5,1.3,0,1.9C52,411.1,51.2,411.2,50.7,410.6z"/>
		<path id="Path_00000174602731547778291070000006531646563243056256_" class="st12" d="M14.7,434.3l-3-3c-0.5-0.5-0.5-1.3,0-1.9
			c0.5-0.5,1.3-0.5,1.9,0l3,3c0.5,0.5,0.5,1.3,0,1.9C16,434.8,15.2,434.8,14.7,434.3z"/>
		<path id="Path_00000085959760576379105660000003523319031223462576_" class="st12" d="M49.5,440.1c-0.5,0.5-1.3,0.5-1.9,0
			c-0.5-0.5-0.5-1.3,0-1.9l8.8-8.8c0.5-0.5,1.3-0.5,1.9,0c0.5,0.5,0.5,1.3,0,1.9L49.5,440.1z"/>
		<path id="Path_00000125594220976984173340000010582033397483181974_" class="st12" d="M60,413l-3.2-3.2c-0.5-0.5-0.5-1.3,0-1.9
			c0.5-0.5,1.3-0.5,1.9,0l3.2,3.2c0.5,0.5,0.5,1.3,0,1.9C61.4,413.5,60.5,413.5,60,413z"/>
		<path id="Path_00000036234271819380805160000013211455257874245779_" class="st12" d="M12.7,416.6c-0.5,0.5-1.3,0.5-1.9,0
			s-0.5-1.3,0-1.9l8.8-8.8c0.5-0.5,1.3-0.5,1.9,0c0.5,0.5,0.5,1.3,0,1.9L12.7,416.6z"/>
		<path id="Path_00000015341516082930668320000015781317397147328907_" class="st12" d="M53,443.6c-0.5,0.5-1.3,0.5-1.9,0
			c-0.5-0.5-0.5-1.3,0-1.9l8.8-8.8c0.5-0.5,1.3-0.5,1.9,0c0.5,0.5,0.5,1.3,0,1.9L53,443.6z"/>
		<path id="Path_00000143597690416381628230000009648230222113602223_" class="st12" d="M54.2,407.1l-3-3c-0.5-0.5-0.5-1.3,0-1.9
			s1.3-0.5,1.9,0l3,3c0.5,0.5,0.5,1.3,0,1.9C55.5,407.7,54.7,407.7,54.2,407.1z"/>
		<path id="Path_00000094592037586003885420000010659130849993869700_" class="st12" d="M20.5,440.1l-3.2-3.2
			c-0.5-0.5-0.5-1.3,0-1.9s1.3-0.5,1.9,0l3.2,3.2c0.5,0.5,0.5,1.3,0,1.9S21,440.7,20.5,440.1z"/>
	</g>
</g>
<g id="zh">
	<g id="Group-3" transform="translate(6.000000, 6.000000)">
		<path id="Rectangle-3_00000096758070694321272190000011164036515032694932_" class="st4" d="M57.4,460H12.6
			c-4.9,0-6.7,0.6-8.5,1.5c-2,1-3.5,2.6-4.5,4.5c-1,1.8-1.5,3.6-1.5,8.5v28.9c0,4.9,0.6,6.7,1.5,8.5c1,2,2.6,3.5,4.5,4.5
			c1.8,1,3.6,1.5,8.5,1.5h44.9c4.9,0,6.7-0.6,8.5-1.5c2-1,3.5-2.6,4.5-4.5c1-1.8,1.5-3.6,1.5-8.5v-28.9c0-4.9-0.6-6.7-1.5-8.5
			c-1-2-2.6-3.5-4.5-4.5C64.1,460.6,62.4,460,57.4,460z"/>
		<g id="Group-2" transform="translate(8.000000, 4.000000)">
			<g id="Group_00000060017110214558628780000006503319829060881542_" transform="translate(14.000000, 0.000000)">
				<path id="Star-Copy_00000032606111359064424640000007897884794420305065_" class="st14" d="M3.6,469l-1.3,0.2
					c-0.4,0.1-0.8-0.2-0.8-0.6c0-0.2,0-0.3,0.1-0.5l0.6-1.1c0.1-0.1,0.1-0.2,0-0.3l-0.6-1.2c-0.2-0.4,0-0.8,0.3-1
					c0.1-0.1,0.3-0.1,0.5-0.1l1.3,0.2c0.1,0,0.2,0,0.3-0.1l0.9-0.9c0.3-0.3,0.8-0.3,1,0c0.1,0.1,0.2,0.3,0.2,0.4l0.2,1.3
					c0,0.1,0.1,0.2,0.2,0.3l1.2,0.6c0.4,0.2,0.5,0.6,0.3,1c-0.1,0.1-0.2,0.3-0.3,0.3l-1.2,0.6c-0.1,0.1-0.2,0.2-0.2,0.3l-0.2,1.3
					c-0.1,0.4-0.4,0.7-0.8,0.6c-0.2,0-0.3-0.1-0.4-0.2l-0.9-0.9C3.8,469,3.7,469,3.6,469z"/>
				<path id="Star-Copy_00000093135387464929392460000011357386951148339841_" class="st14" d="M12.7,475.7l-0.9,0.9
					c-0.3,0.3-0.7,0.3-1,0c-0.1-0.1-0.2-0.3-0.2-0.4l-0.2-1.3c0-0.1-0.1-0.2-0.2-0.3l-1.2-0.6c-0.4-0.2-0.5-0.6-0.4-1
					c0.1-0.1,0.2-0.3,0.3-0.3l1.2-0.6c0.1-0.1,0.2-0.2,0.2-0.3l0.2-1.3c0.1-0.4,0.4-0.7,0.8-0.6c0.2,0,0.3,0.1,0.4,0.2l0.9,0.9
					c0.1,0.1,0.2,0.1,0.3,0.1l1.3-0.2c0.4-0.1,0.8,0.2,0.9,0.6c0,0.2,0,0.3-0.1,0.5l-0.6,1.2c-0.1,0.1-0.1,0.2,0,0.3l0.6,1.1
					c0.2,0.4,0.1,0.8-0.3,1c-0.1,0.1-0.3,0.1-0.5,0.1l-1.3-0.2C12.9,475.6,12.8,475.6,12.7,475.7z"/>
				<path id="Star-Copy_00000163071703000420313730000000241007992533950900_" class="st14" d="M3.6,491.7l-1.3,0.2
					c-0.4,0.1-0.8-0.2-0.8-0.6c0-0.2,0-0.3,0.1-0.5l0.6-1.1c0.1-0.1,0.1-0.2,0-0.3l-0.6-1.2c-0.2-0.4,0-0.8,0.3-1
					c0.1-0.1,0.3-0.1,0.5-0.1l1.3,0.2c0.1,0,0.2,0,0.3-0.1l0.9-0.9c0.3-0.3,0.8-0.3,1,0c0.1,0.1,0.2,0.3,0.2,0.4l0.2,1.3
					c0,0.1,0.1,0.2,0.2,0.3l1.2,0.6c0.4,0.2,0.5,0.6,0.3,1c-0.1,0.1-0.2,0.3-0.3,0.3l-1.2,0.6c-0.1,0.1-0.2,0.2-0.2,0.3l-0.2,1.3
					c-0.1,0.4-0.4,0.7-0.8,0.6c-0.2,0-0.3-0.1-0.4-0.2l-0.9-0.9C3.8,491.7,3.7,491.6,3.6,491.7z"/>
				<path id="Star-Copy_00000023982542559894759400000009302885947751631024_" class="st14" d="M11.8,485.4l-1.1,0.6
					c-0.4,0.2-0.8,0.1-1-0.3c-0.1-0.1-0.1-0.3-0.1-0.5l0.2-1.3c0-0.1,0-0.2-0.1-0.3l-0.9-0.9c-0.3-0.3-0.3-0.8,0-1
					c0.1-0.1,0.3-0.2,0.4-0.2l1.3-0.2c0.1,0,0.2-0.1,0.3-0.2l0.6-1.2c0.2-0.4,0.6-0.5,1-0.3c0.1,0.1,0.3,0.2,0.3,0.3l0.6,1.2
					c0.1,0.1,0.2,0.2,0.3,0.2l1.3,0.2c0.4,0.1,0.7,0.4,0.6,0.8c0,0.2-0.1,0.3-0.2,0.4l-0.9,0.9c-0.1,0.1-0.1,0.2-0.1,0.3l0.2,1.3
					c0.1,0.4-0.2,0.8-0.6,0.9c-0.2,0-0.3,0-0.5-0.1l-1.1-0.6C12.1,485.3,11.9,485.3,11.8,485.4z"/>
			</g>
			<path id="Star" class="st14" d="M7.6,483.2l-2.6,1.3c-0.8,0.4-1.8,0.1-2.2-0.7c-0.2-0.3-0.2-0.7-0.2-1l0.5-2.8
				c0-0.3,0-0.5-0.2-0.7l-2.1-2c-0.6-0.6-0.7-1.7,0-2.3c0.3-0.3,0.6-0.4,0.9-0.5l2.9-0.4c0.3,0,0.5-0.2,0.6-0.5l1.3-2.6
				c0.4-0.8,1.4-1.1,2.2-0.7c0.3,0.2,0.6,0.4,0.7,0.7l1.3,2.6c0.1,0.2,0.4,0.4,0.6,0.5l2.9,0.4c0.9,0.1,1.5,1,1.4,1.9
				c-0.1,0.4-0.2,0.7-0.5,0.9l-2.1,2c-0.2,0.2-0.3,0.5-0.2,0.7l0.5,2.8c0.2,0.9-0.4,1.7-1.3,1.9c-0.4,0.1-0.7,0-1-0.2l-2.6-1.3
				C8.1,483.1,7.9,483.1,7.6,483.2z"/>
		</g>
	</g>
</g>
<g id="ru">
	<g id="Group_00000092443753584237565090000017437603761895422383_" transform="translate(6.000000, 6.000000)">
		<path id="Rectangle-3_00000132084298663261653490000013185814793686550422_" class="st15" d="M57.4,526H12.6
			c-4.9,0-6.7,0.6-8.5,1.5c-2,1-3.5,2.6-4.5,4.5c-1,1.8-1.5,3.6-1.5,8.5v28.9c0,4.9,0.6,6.7,1.5,8.5c1,2,2.6,3.5,4.5,4.5
			c1.8,1,3.6,1.5,8.5,1.5h44.9c4.9,0,6.7-0.6,8.5-1.5c2-1,3.5-2.6,4.5-4.5c1-1.8,1.5-3.6,1.5-8.5v-28.9c0-4.9-0.6-6.7-1.5-8.5
			c-1-2-2.6-3.5-4.5-4.5C64.1,526.6,62.4,526,57.4,526z"/>
		<path id="Path_00000170961546657163253820000013376876341800563093_" class="st9" d="M70,564v5.4c0,4.4-0.5,6-1.3,7.5
			c-0.9,1.6-2.1,2.9-3.7,3.7c-1.6,0.9-3.2,1.3-7.5,1.3H12.6c-4.4,0-6-0.5-7.5-1.3s-2.9-2.1-3.7-3.7c-0.9-1.6-1.3-3.2-1.3-7.5V564H70
			z"/>
		<path id="Path_00000030466009042992958490000015176547019480777859_" class="st16" d="M12.6,528h44.9c4.4,0,6,0.5,7.5,1.3
			c1.6,0.9,2.9,2.1,3.7,3.7c0.9,1.6,1.3,3.2,1.3,7.5v5.4H0v-5.4c0-4.4,0.5-6,1.3-7.5c0.9-1.6,2.1-2.9,3.7-3.7
			C6.6,528.5,8.2,528,12.6,528z"/>
	</g>
</g>
<g id="pt-copy">
	<g id="Group_00000124853471187809897020000012180108030782910394_" transform="translate(6.000000, 2.000000)">
		<path id="Rectangle-3_00000170997460747186127670000012354946379270003849_" class="st17" d="M57.4,596H12.6
			c-4.9,0-6.7,0.6-8.5,1.5c-2,1-3.5,2.6-4.5,4.5c-1,1.8-1.5,3.6-1.5,8.5v28.9c0,4.9,0.6,6.7,1.5,8.5c1,2,2.6,3.5,4.5,4.5
			c1.8,1,3.6,1.5,8.5,1.5h44.9c4.9,0,6.7-0.6,8.5-1.5c2-1,3.5-2.6,4.5-4.5c1-1.8,1.5-3.6,1.5-8.5v-28.9c0-4.9-0.6-6.7-1.5-8.5
			c-1-2-2.6-3.5-4.5-4.5C64.1,596.6,62.4,596,57.4,596z"/>
		<path id="Rectangle" class="st5" d="M6.1,624.4l27.7-20.2c0.7-0.5,1.7-0.5,2.4,0l27.7,20.2c0.9,0.7,1.1,1.9,0.4,2.8
			c-0.1,0.2-0.3,0.3-0.4,0.4l-27.7,20.1c-0.7,0.5-1.6,0.5-2.3,0L6.1,627.6c-0.9-0.6-1.1-1.9-0.4-2.8C5.8,624.7,5.9,624.5,6.1,624.4z
			"/>
		<circle id="Mask" class="st2" cx="35" cy="626" r="12"/>
		<path id="Path_00000138573345952693311990000000820933532701992353_" class="st6" d="M23,625.2c0.1-1.5,0.5-3,1.1-4.3l22.8,5.7
			c-0.1,1.5-0.4,3-1,4.4L23,625.2z"/>
	</g>
</g>
<g id="tr">
	<g id="Group_00000173149093524090017160000012416319275837141664_" transform="translate(6.000000, 6.000000)">
		<path id="Rectangle-3_00000175309833801228795200000004431737097061566651_" class="st4" d="M57.4,658H12.6
			c-4.9,0-6.7,0.6-8.5,1.5c-2,1-3.5,2.6-4.5,4.5c-1,1.8-1.5,3.6-1.5,8.5v28.7c0,4.9,0.6,6.7,1.5,8.5c1,2,2.6,3.5,4.5,4.5
			c1.8,1,3.6,1.5,8.5,1.5h44.9c4.9,0,6.7-0.6,8.5-1.5c2-1,3.5-2.6,4.5-4.5c1-1.8,1.5-3.6,1.5-8.5v-28.7c0-4.9-0.6-6.7-1.5-8.5
			c-1-2-2.6-3.5-4.5-4.5C64.1,658.6,62.4,658,57.4,658z"/>
		<path id="Path_00000088127688517147388030000012601962620201770141_" class="st3" d="M42.3,675.3c-0.9-0.2-1.6-0.3-2.3-0.3
			c-6.6,0-12,5.4-12,12s5.4,12,12,12c0.7,0,1.4-0.1,2.3-0.3l0,0c0.5-0.1,1.1,0.2,1.2,0.7c0.1,0.4-0.1,0.8-0.4,1.1
			c-2.4,1.7-5.5,2.5-9.1,2.5c-8.8,0-16-7.2-16-16s7.2-16,16-16c3.7,0,6.7,0.8,9.1,2.5h0c0.5,0.3,0.6,0.9,0.2,1.4
			C43.1,675.3,42.7,675.4,42.3,675.3z"/>
		<path id="Star-2" class="st3" d="M47.8,691.9l-1.7,1.6c-0.6,0.5-1.4,0.5-2-0.1c-0.2-0.2-0.3-0.5-0.4-0.8l-0.2-2.3
			c0-0.3-0.2-0.6-0.5-0.8l-2-1.1c-0.7-0.4-0.9-1.2-0.5-1.9c0.2-0.3,0.4-0.5,0.7-0.6l2.1-0.9c0.3-0.1,0.5-0.4,0.6-0.7l0.4-2.3
			c0.1-0.8,0.9-1.2,1.6-1.1c0.3,0.1,0.6,0.2,0.8,0.5l1.5,1.7c0.2,0.2,0.5,0.4,0.9,0.3l2.3-0.3c0.8-0.1,1.5,0.5,1.6,1.2
			c0,0.3,0,0.6-0.2,0.9l-1.2,2c-0.2,0.3-0.2,0.6,0,0.9l1,2.1c0.3,0.7,0,1.5-0.7,1.8c-0.3,0.1-0.6,0.2-0.9,0.1l-2.2-0.5
			C48.3,691.6,48,691.7,47.8,691.9z"/>
	</g>
</g>
<g id="nl">
	<g id="Group_00000172403565920304684880000015858555057423683215_" transform="translate(6.000000, 6.000000)">
		<path id="Rectangle-3_00000168807122261604804860000010288325610333566906_" class="st7" d="M57.4,724H12.6
			c-4.9,0-6.7,0.6-8.5,1.5c-2,1-3.5,2.6-4.5,4.5c-1,1.8-1.5,3.6-1.5,8.5v28.9c0,4.9,0.6,6.7,1.5,8.5c1,2,2.6,3.5,4.5,4.5
			c1.8,1,3.6,1.5,8.5,1.5h44.9c4.9,0,6.7-0.6,8.5-1.5c2-1,3.5-2.6,4.5-4.5c1-1.8,1.5-3.6,1.5-8.5v-28.9c0-4.9-0.6-6.7-1.5-8.5
			c-1-2-2.6-3.5-4.5-4.5C64.1,724.6,62.4,724,57.4,724z"/>
		<path id="Path_00000179633439353637616850000010867993924979260095_" class="st8" d="M70,762v5.4c0,4.4-0.5,6-1.3,7.5
			c-0.9,1.6-2.1,2.9-3.7,3.7c-1.6,0.9-3.2,1.3-7.5,1.3H12.6c-4.4,0-6-0.5-7.5-1.3s-2.9-2.1-3.7-3.7c-0.9-1.6-1.3-3.2-1.3-7.5V762H70
			z"/>
		<path id="Path_00000035509769655722545220000015708876250957461907_" class="st9" d="M12.6,726h44.9c4.4,0,6,0.5,7.5,1.3
			c1.6,0.9,2.9,2.1,3.7,3.7c0.9,1.6,1.3,3.2,1.3,7.5v5.4H0v-5.4c0-4.4,0.5-6,1.3-7.5c0.9-1.6,2.1-2.9,3.7-3.7
			C6.6,726.5,8.2,726,12.6,726z"/>
	</g>
</g>
<g id="sv">
	<g id="Group-10" transform="translate(6.000000, 6.000000)">
		<path id="Rectangle-3_00000145051420992192044330000004645336424715491762_" class="st15" d="M57.4,790H12.6
			c-4.9,0-6.7,0.6-8.5,1.5c-2,1-3.5,2.6-4.5,4.5c-1,1.8-1.5,3.6-1.5,8.5v28.9c0,4.9,0.6,6.7,1.5,8.5c1,2,2.6,3.5,4.5,4.5
			c1.8,1,3.6,1.5,8.5,1.5h44.9c4.9,0,6.7-0.6,8.5-1.5c2-1,3.5-2.6,4.5-4.5c1-1.8,1.5-3.6,1.5-8.5v-28.9c0-4.9-0.6-6.7-1.5-8.5
			c-1-2-2.6-3.5-4.5-4.5C64.1,790.6,62.4,790,57.4,790z"/>
		<path id="Combined-Shape" class="st11" d="M29,792v20l41,0v14l-41,0v20H15v-20l-15,0v-14l15,0v-20H29z"/>
	</g>
</g>
<g id="ga">
	<g id="Group_00000044159395546463471390000009333706949616798629_" transform="translate(6.000000, 6.000000)">
		<path id="Rectangle-3_00000163055265195146530650000014117681883926201491_" class="st7" d="M57.4,856H12.6
			c-4.9,0-6.7,0.6-8.5,1.5c-2,1-3.5,2.6-4.5,4.5c-1,1.8-1.5,3.6-1.5,8.5v28.9c0,4.9,0.6,6.7,1.5,8.5c1,2,2.6,3.5,4.5,4.5
			c1.8,1,3.6,1.5,8.5,1.5h44.9c4.9,0,6.7-0.6,8.5-1.5c2-1,3.5-2.6,4.5-4.5c1-1.8,1.5-3.6,1.5-8.5v-28.9c0-4.9-0.6-6.7-1.5-8.5
			c-1-2-2.6-3.5-4.5-4.5C64.1,856.6,62.4,856,57.4,856z"/>
		<path id="Path_00000062900396291171919340000008821313357725973901_" class="st13" d="M23.6,858v54H12.6c-4.4,0-6-0.5-7.5-1.3
			s-2.9-2.1-3.7-3.7c-0.9-1.6-1.3-3.2-1.3-7.5v-28.9c0-4.4,0.5-6,1.3-7.5c0.9-1.6,2.1-2.9,3.7-3.7c1.6-0.9,3.2-1.3,7.5-1.3H23.6z"/>
		<path id="Path_00000031204559086892743300000011762204335446248586_" class="st18" d="M46.4,858h11.1c4.4,0,6,0.5,7.5,1.3
			c1.6,0.9,2.9,2.1,3.7,3.7c0.9,1.6,1.3,3.2,1.3,7.5v28.9c0,4.4-0.5,6-1.3,7.5c-0.9,1.6-2.1,2.9-3.7,3.7c-1.6,0.9-3.2,1.3-7.5,1.3
			H46.4V858z"/>
	</g>
</g>
<g id="el">
	<g id="Group_00000159452371713213915090000014140487872726934171_" transform="translate(6.000000, 6.000000)">
		<path id="Rectangle-3_00000126322841675978234190000007212454170335590799_" class="st7" d="M57.4,922H12.6
			c-4.9,0-6.7,0.6-8.5,1.5c-2,1-3.5,2.6-4.5,4.5c-1,1.8-1.5,3.6-1.5,8.5v28.9c0,4.9,0.6,6.7,1.5,8.5c1,2,2.6,3.5,4.5,4.5
			c1.8,1,3.6,1.5,8.5,1.5h44.9c4.9,0,6.7-0.6,8.5-1.5c2-1,3.5-2.6,4.5-4.5c1-1.8,1.5-3.6,1.5-8.5v-28.9c0-4.9-0.6-6.7-1.5-8.5
			c-1-2-2.6-3.5-4.5-4.5C64.1,922.6,62.4,922,57.4,922z"/>
		<path id="Path_00000067212394209428132320000001923784980944743571_" class="st8" d="M12.6,924H35v30H0v-17.4c0-4.4,0.5-6,1.3-7.5
			c0.9-1.6,2.1-2.9,3.7-3.7C6.6,924.5,8.2,924,12.6,924z"/>
		<path id="Path_00000160175886898945871290000006013220817254274741_" class="st8" d="M57.4,924c4.4,0,6,0.5,7.5,1.3
			c1.6,0.9,2.9,2.1,3.7,3.7c0.2,0.3,0.3,0.6,0.5,1H27v-6H57.4z"/>
		<path id="Path_00000123422899769707802380000006240004830269822875_" class="st8" d="M70,936c0,0.2,0,0.4,0,0.6v5.4H25v-6H70
			L70,936z"/>
		<polygon id="Path_00000174585254037604554950000008829281427472686741_" class="st8" points="70,948 70,954 0,954 0,948 		"/>
		<path id="Path_00000116199037640243999610000008519667347778343045_" class="st8" d="M70,960v5.4c0,0.2,0,0.4,0,0.6H0
			c0-0.2,0-0.4,0-0.6V960H70z"/>
		<path id="Path_00000123421683813402136500000013407114379151311270_" class="st8" d="M69.2,972c-0.1,0.3-0.3,0.7-0.5,1
			c-0.9,1.6-2.1,2.9-3.7,3.7c-1.6,0.9-3.2,1.3-7.5,1.3H12.6c-4.4,0-6-0.5-7.5-1.3s-2.9-2.1-3.7-3.7c-0.2-0.3-0.3-0.6-0.5-1H69.2
			L69.2,972z"/>
		<polygon id="Rectangle-Copy-4" class="st16" points="0,936 35,936 35,942 0,942 		"/>
		<polygon id="Rectangle-5" class="st16" points="14,924 20,924 20,956 14,956 		"/>
	</g>
</g>
<g id="he">
	<g id="Group_00000176759480258888823640000001288433976338248887_" transform="translate(6.000000, 6.000000)">
		<path id="Rectangle-3_00000110434857972849998970000006284070564061495481_" class="st7" d="M57.4,988H12.6
			c-4.9,0-6.7,0.6-8.5,1.5c-2,1-3.5,2.6-4.5,4.5c-1,1.8-1.5,3.6-1.5,8.5v28.9c0,4.9,0.6,6.7,1.5,8.5c1,2,2.6,3.5,4.5,4.5
			c1.8,1,3.6,1.5,8.5,1.5h44.9c4.9,0,6.7-0.6,8.5-1.5c2-1,3.5-2.6,4.5-4.5c1-1.8,1.5-3.6,1.5-8.5v-28.9c0-4.9-0.6-6.7-1.5-8.5
			c-1-2-2.6-3.5-4.5-4.5C64.1,988.6,62.4,988,57.4,988z"/>
		<path id="Path_00000006703376415822274410000009536642720714685596_" class="st8" d="M70,1032c0,3.9-0.5,5.5-1.3,7
			c-0.2,0.4-0.4,0.7-0.6,1H1.9c-0.2-0.3-0.4-0.7-0.6-1c-0.8-1.5-1.3-3-1.3-7H70L70,1032z"/>
		<path id="Path_00000044869236608832443300000007266474338700330396_" class="st8" d="M68.1,994c0.2,0.3,0.4,0.7,0.6,1
			c0.8,1.5,1.3,3,1.3,7H0c0-3.9,0.5-5.5,1.3-7c0.2-0.4,0.4-0.7,0.6-1H68.1L68.1,994z"/>
		<path id="Triangle" class="st8" d="M35.5,1007C35.5,1007,35.5,1007,35.5,1007C35.5,1007,35.5,1007,35.5,1007l-9.2,14.8
			c0,0,0,0,0,0c0,0,0,0,0,0h18.4c0,0,0,0,0,0c0,0,0,0,0,0L35.5,1007z M37.7,1005.6l9.2,14.8c0.8,1.2,0.4,2.9-0.8,3.6
			c-0.4,0.3-0.9,0.4-1.4,0.4H26.3c-1.5,0-2.6-1.2-2.6-2.6c0-0.5,0.1-1,0.4-1.4l9.2-14.8c0.8-1.2,2.4-1.6,3.6-0.8
			C37.2,1005,37.5,1005.3,37.7,1005.6z"/>
		<path id="Shape" class="st8" d="M35.5,1026.7C35.5,1026.7,35.5,1026.7,35.5,1026.7C35.5,1026.7,35.5,1026.7,35.5,1026.7l9.2-14.8
			c0,0,0,0,0,0c0,0,0,0,0,0H26.3c0,0,0,0,0,0c0,0,0,0,0,0L35.5,1026.7z M33.3,1028.1l-9.2-14.8c-0.8-1.2-0.4-2.9,0.8-3.6
			c0.4-0.3,0.9-0.4,1.4-0.4h18.4c1.5,0,2.6,1.2,2.6,2.6c0,0.5-0.1,1-0.4,1.4l-9.2,14.8c-0.8,1.2-2.4,1.6-3.6,0.8
			C33.8,1028.7,33.5,1028.4,33.3,1028.1z"/>
	</g>
</g>
<g id="pl">
	<g id="Group_00000138531553307302955400000001416885868543627443_" transform="translate(6.000000, 6.000000)">
		<path id="Rectangle-3_00000102523479123165241130000000990576008715049113_" class="st7" d="M57.4,1054H12.6
			c-4.9,0-6.7,0.6-8.5,1.5c-2,1-3.5,2.6-4.5,4.5c-1,1.8-1.5,3.6-1.5,8.5v28.9c0,4.9,0.6,6.7,1.5,8.5c1,2,2.6,3.5,4.5,4.5
			c1.8,1,3.6,1.5,8.5,1.5h44.9c4.9,0,6.7-0.6,8.5-1.5c2-1,3.5-2.6,4.5-4.5c1-1.8,1.5-3.6,1.5-8.5v-28.9c0-4.9-0.6-6.7-1.5-8.5
			c-1-2-2.6-3.5-4.5-4.5C64.1,1054.6,62.4,1054,57.4,1054z"/>
		<path id="Path_00000116207210518331646370000008396242275853878938_" class="st9" d="M70,1083v14.4c0,4.4-0.5,6-1.3,7.5
			s-2.1,2.9-3.7,3.7c-1.6,0.9-3.2,1.3-7.5,1.3H12.6c-4.4,0-6-0.5-7.5-1.3s-2.9-2.1-3.7-3.7s-1.3-3.2-1.3-7.5V1083H70z"/>
	</g>
</g>
<g id="no-copy">
	<g id="Group_00000160172881050514849480000002200319823769152425_" transform="translate(6.000000, 6.000000)">
		<path id="Rectangle-3_00000037670241545921678970000001684972485158405816_" class="st10" d="M57.4,1120H12.6
			c-4.9,0-6.7,0.6-8.5,1.5c-2,1-3.5,2.6-4.5,4.5c-1,1.8-1.5,3.6-1.5,8.5v28.9c0,4.9,0.6,6.7,1.5,8.5c1,2,2.6,3.5,4.5,4.5
			c1.8,1,3.6,1.5,8.5,1.5h44.9c4.9,0,6.7-0.6,8.5-1.5c2-1,3.5-2.6,4.5-4.5c1-1.8,1.5-3.6,1.5-8.5v-28.9c0-4.9-0.6-6.7-1.5-8.5
			c-1-2-2.6-3.5-4.5-4.5C64.1,1120.6,62.4,1120,57.4,1120z"/>
		<polygon id="Path_00000003818088866130928110000010076222791714243231_" class="st3" points="15,1122 29,1122 29,1142 70,1142 
			70,1156 29,1156 29,1176 15,1176 15,1156 0,1156 0,1142 15,1142 		"/>
		<polygon id="Path_00000063593149663084550930000010844929887917731259_" class="st2" points="26,1145 70,1145 70,1153 26,1153 
			26,1176 18,1176 18,1153 0,1153 0,1145 18,1145 18,1122 26,1122 		"/>
	</g>
</g>
<g id="vi">
	<g id="Group_00000037667096886314535580000017111248835982113720_" transform="translate(6.000000, 6.000000)">
		<path id="Rectangle-3_00000140715373956913632450000016344376827741328786_" class="st10" d="M57.4,1186H12.6
			c-4.9,0-6.7,0.6-8.5,1.5c-2,1-3.5,2.6-4.5,4.5c-1,1.8-1.5,3.6-1.5,8.5v28.9c0,4.9,0.6,6.7,1.5,8.5c1,2,2.6,3.5,4.5,4.5
			c1.8,1,3.6,1.5,8.5,1.5h44.9c4.9,0,6.7-0.6,8.5-1.5c2-1,3.5-2.6,4.5-4.5c1-1.8,1.5-3.6,1.5-8.5v-28.9c0-4.9-0.6-6.7-1.5-8.5
			c-1-2-2.6-3.5-4.5-4.5C64.1,1186.6,62.4,1186,57.4,1186z"/>
		<path id="Star_00000119830910921053584720000000775180331146484899_" class="st14" d="M34.5,1222.7l-3.9,2.1
			c-1.2,0.6-2.7,0.2-3.3-1c-0.3-0.5-0.3-1-0.2-1.6l0.8-4.4c0.1-0.3-0.1-0.7-0.3-0.9l-3.2-3.1c-1-0.9-1-2.5,0-3.5
			c0.4-0.4,0.9-0.6,1.4-0.7l4.4-0.6c0.3,0,0.6-0.3,0.8-0.5l2-4c0.6-1.2,2.1-1.7,3.3-1.1c0.5,0.2,0.9,0.6,1.1,1.1l2,4
			c0.1,0.3,0.4,0.5,0.8,0.5l4.4,0.6c1.3,0.2,2.3,1.4,2.1,2.8c-0.1,0.5-0.3,1-0.7,1.4l-3.2,3.1c-0.2,0.2-0.3,0.6-0.3,0.9l0.8,4.4
			c0.2,1.3-0.7,2.6-2,2.8c-0.5,0.1-1.1,0-1.6-0.2l-3.9-2.1C35.2,1222.6,34.8,1222.6,34.5,1222.7z"/>
	</g>
</g>
<g id="da">
	<g id="Group_00000073692096290248261790000012932315981452159902_" transform="translate(6.000000, 6.000000)">
		<path id="Rectangle-3_00000152953701224520891530000012974800084413228689_" class="st10" d="M57.4,1252H12.6
			c-4.9,0-6.7,0.6-8.5,1.5c-2,1-3.5,2.6-4.5,4.5c-1,1.8-1.5,3.6-1.5,8.5v28.9c0,4.9,0.6,6.7,1.5,8.5c1,2,2.6,3.5,4.5,4.5
			c1.8,1,3.6,1.5,8.5,1.5h44.9c4.9,0,6.7-0.6,8.5-1.5c2-1,3.5-2.6,4.5-4.5c1-1.8,1.5-3.6,1.5-8.5v-28.9c0-4.9-0.6-6.7-1.5-8.5
			c-1-2-2.6-3.5-4.5-4.5C64.1,1252.6,62.4,1252,57.4,1252z"/>
		<rect id="Rectangle_00000036936814590600747910000014810120607912353467_" x="19" y="1254" class="st19" width="12" height="54"/>
		<rect id="Rectangle_00000151530452977438096200000015059325429137974953_" y="1275" class="st19" width="70" height="12"/>
	</g>
</g>
<g id="hv">
	<g id="Group_00000031899118415821677490000002383746811301104571_" transform="translate(6.000000, 6.000000)">
		<path id="Rectangle-3_00000061433944723226039900000010356796485518709674_" class="st20" d="M57.4,1318H12.6
			c-4.9,0-6.7,0.6-8.5,1.5c-2,1-3.5,2.6-4.5,4.5c-1,1.8-1.5,3.6-1.5,8.5v28.9c0,4.9,0.6,6.7,1.5,8.5c1,2,2.6,3.5,4.5,4.5
			c1.8,1,3.6,1.5,8.5,1.5h44.9c4.9,0,6.7-0.6,8.5-1.5c2-1,3.5-2.6,4.5-4.5c1-1.8,1.5-3.6,1.5-8.5v-28.9c0-4.9-0.6-6.7-1.5-8.5
			c-1-2-2.6-3.5-4.5-4.5C64.1,1318.6,62.4,1318,57.4,1318z"/>
		<path id="Path_00000162318826210364807580000008953253617715261369_" class="st9" d="M35.1,1330l5.7-2.8c0.6-0.3,1.4,0.2,1.3,0.9
			l-0.4,2.9H47c9.9,0,18,8.1,18,18s-8.1,18-18,18h-6.5c-1.9,0-3.5,1.6-3.5,3.5s1.6,3.5,3.5,3.5H50H23.3c-0.2-1.1-0.3-2.3-0.3-3.5
			c0-9.7,7.8-17.5,17.5-17.5H47c2.2,0,4-1.8,4-4s-1.8-4-4-4h-8.7l0.6,2.1c0.1,0.6-0.3,1.1-0.8,1.1l-7.1,0.3l1.3,2
			c0.4,0.6,0,1.4-0.7,1.4l-10.6,0.6c-1.4,0.1-2.7-0.2-3.9-0.9l-2.8,1.4c-0.5,0.2-1,0-1.2-0.4c-2.4-5.1-0.8-11.1,3.8-14.3l16.8-11.9
			c0.6-0.4,1.4,0,1.4,0.7L35.1,1330z"/>
		<path id="Rectangle-Copy-4_00000152974125516254473590000015775073221612212868_" class="st18" d="M13.5,1358.8l-5.2,3
			c-0.5,0.3-1.1,0.1-1.4-0.4c-1.1-1.9-0.4-4.4,1.5-5.5c1.9-1.1,4.4-0.4,5.5,1.5C14.1,1357.9,14,1358.5,13.5,1358.8z"/>
		<path id="Rectangle_00000062155407474827406660000001976164883440219780_" class="st14" d="M10.5,1358l6.1-3.5
			c0.5-0.3,1.1-0.1,1.4,0.4c1.1,1.9,0.4,4.4-1.5,5.5l-0.9,0.5c-1.9,1.1-4.4,0.4-5.5-1.5C9.8,1358.9,10,1358.3,10.5,1358z"/>
		<path id="Rectangle-Copy-5" class="st14" d="M7.5,1365.1l3.5-2c0.5-0.3,1.1-0.1,1.4,0.4c0.8,1.4,0.3,3.3-1.1,4.1
			c-1.4,0.8-3.3,0.3-4.1-1.1C6.9,1366,7,1365.4,7.5,1365.1z"/>
		<path id="Rectangle_00000087395931213687173610000010929323396270525594_" class="st14" d="M19.9,1341.8l3.8-3.8
			c0.4-0.4,0.9-0.4,1.3,0c1.1,1.1,1.1,2.8,0,3.8l-1.3,1.3c-1.1,1.1-2.8,1.1-3.8,0l0,0C19.6,1342.7,19.6,1342.2,19.9,1341.8z"/>
	</g>
</g>
<g id="ro">
	<g id="Group_00000093856796207362371830000009540860663218601089_" transform="translate(6.000000, 6.000000)">
		<path id="Rectangle-3_00000129191476670991712430000012241198545965026704_" class="st21" d="M57.4,1384H12.6
			c-4.9,0-6.7,0.6-8.5,1.5c-2,1-3.5,2.6-4.5,4.5c-1,1.8-1.5,3.6-1.5,8.5v28.9c0,4.9,0.6,6.7,1.5,8.5c1,2,2.6,3.5,4.5,4.5
			c1.8,1,3.6,1.5,8.5,1.5h44.9c4.9,0,6.7-0.6,8.5-1.5c2-1,3.5-2.6,4.5-4.5c1-1.8,1.5-3.6,1.5-8.5v-28.9c0-4.9-0.6-6.7-1.5-8.5
			c-1-2-2.6-3.5-4.5-4.5C64.1,1384.6,62.4,1384,57.4,1384z"/>
		<path id="Path_00000121980812707585849090000017361881298642273721_" class="st8" d="M23.6,1386v54H12.6c-4.4,0-6-0.5-7.5-1.3
			s-2.9-2.1-3.7-3.7s-1.3-3.2-1.3-7.5v-28.9c0-4.4,0.5-6,1.3-7.5s2.1-2.9,3.7-3.7s3.2-1.3,7.5-1.3H23.6z"/>
		<path id="Path_00000128464056227780761800000016613202419167243671_" class="st9" d="M46.4,1386h11.1c4.4,0,6,0.5,7.5,1.3
			c1.6,0.9,2.9,2.1,3.7,3.7s1.3,3.2,1.3,7.5v28.9c0,4.4-0.5,6-1.3,7.5s-2.1,2.9-3.7,3.7c-1.6,0.9-3.2,1.3-7.5,1.3H46.4V1386z"/>
	</g>
</g>
<g id="sw">
	<g id="Group_00000119802645069680467680000017416650671505859745_" transform="translate(6.000000, 6.000000)">
		<path id="Rectangle-3_00000127759787113658110820000010605133825853742471_" class="st15" d="M57.4,1450H12.6
			c-4.9,0-6.7,0.6-8.5,1.5c-2,1-3.5,2.6-4.5,4.5c-1,1.8-1.5,3.6-1.5,8.5v28.9c0,4.9,0.6,6.7,1.5,8.5c1,2,2.6,3.5,4.5,4.5
			c1.8,1,3.6,1.5,8.5,1.5h44.9c4.9,0,6.7-0.6,8.5-1.5c2-1,3.5-2.6,4.5-4.5c1-1.8,1.5-3.6,1.5-8.5v-28.9c0-4.9-0.6-6.7-1.5-8.5
			c-1-2-2.6-3.5-4.5-4.5C64.1,1450.6,62.4,1450,57.4,1450z"/>
		<path id="Path_00000148650944941559586590000001251515509247280805_" class="st22" d="M65.4,1453.6L0.5,1499
			c-0.3-1.2-0.5-2.9-0.5-5.6v-28.9c0-4.4,0.5-6,1.3-7.5s2.1-2.9,3.7-3.7s3.2-1.3,7.5-1.3h44.9c4.4,0,6,0.5,7.5,1.3
			C65.1,1453.4,65.3,1453.5,65.4,1453.6z"/>
		<path id="Path_00000080166831036859604510000011011824789917243018_" class="st14" d="M56.2,1452h1.2c4.4,0,6,0.5,7.5,1.3
			c1.6,0.9,2.9,2.1,3.7,3.7s1.3,3.2,1.3,7.5v2.5L14.4,1506h-1.9c-4.4,0-6-0.5-7.5-1.3s-2.9-2.1-3.7-3.7s-1.3-3.2-1.3-7.5v-2.1
			L56.2,1452L56.2,1452z"/>
		<path id="Path_00000098912900033207417810000007592479463504385946_" class="st23" d="M62.5,1452.4c1,0.2,1.7,0.5,2.5,0.9
			c1.6,0.9,2.9,2.1,3.7,3.7c0.7,1.3,1.1,2.5,1.2,5.2l-62.1,43.5c-1.2-0.2-2-0.6-2.8-1c-1.6-0.9-2.9-2.1-3.7-3.7
			c-0.7-1.2-1.1-2.4-1.2-4.9L62.5,1452.4L62.5,1452.4z"/>
	</g>
</g>
<g id="eo">
	<g id="Group_00000051377294558491212670000005417118049291655828_" transform="translate(6.000000, 6.000000)">
		<path id="Rectangle-3_00000070111523284413757300000012121204373025615233_" class="st24" d="M57.4,1516H12.6
			c-4.9,0-6.7,0.6-8.5,1.5c-2,1-3.5,2.6-4.5,4.5c-1,1.8-1.5,3.6-1.5,8.5v28.9c0,4.9,0.6,6.7,1.5,8.5c1,2,2.6,3.5,4.5,4.5
			c1.8,1,3.6,1.5,8.5,1.5h44.9c4.9,0,6.7-0.6,8.5-1.5c2-1,3.5-2.6,4.5-4.5c1-1.8,1.5-3.6,1.5-8.5v-28.9c0-4.9-0.6-6.7-1.5-8.5
			c-1-2-2.6-3.5-4.5-4.5C64.1,1516.6,62.4,1516,57.4,1516z"/>
		<path id="Path_00000057131903288471545990000015258463857345365664_" class="st16" d="M12.6,1518H35v27c0,2.2-1.8,4-4,4H0v-18.4
			c0-4.4,0.5-6,1.3-7.5s2.1-2.9,3.7-3.7S8.2,1518,12.6,1518z"/>
		<path id="Star_00000001664512095605803670000000959078575189541032_" class="st22" d="M16.6,1540.7l-3.4,1.8
			c-1,0.5-2.3,0.1-2.9-0.9c-0.2-0.4-0.3-0.9-0.2-1.4l0.7-3.8c0-0.3,0-0.6-0.2-0.8l-2.8-2.7c-0.8-0.8-0.9-2.2,0-3
			c0.3-0.3,0.8-0.6,1.2-0.6l3.8-0.6c0.3,0,0.5-0.2,0.7-0.5l1.7-3.5c0.5-1.1,1.8-1.5,2.9-1c0.4,0.2,0.8,0.5,1,1l1.7,3.5
			c0.1,0.3,0.4,0.4,0.7,0.5l3.8,0.6c1.2,0.2,2,1.3,1.8,2.4c-0.1,0.5-0.3,0.9-0.6,1.2l-2.8,2.7c-0.2,0.2-0.3,0.5-0.2,0.8l0.7,3.8
			c0.2,1.2-0.6,2.3-1.7,2.5c-0.5,0.1-0.9,0-1.4-0.2l-3.4-1.8C17.2,1540.6,16.8,1540.6,16.6,1540.7z"/>
	</g>
</g>
<g id="hu">
	<g id="Group_00000134967109887890332800000002039500931545160835_" transform="translate(6.000000, 6.000000)">
		<path id="Rectangle-3_00000029762219843366687740000008865002443718974143_" class="st7" d="M57.4,1582H12.6
			c-4.9,0-6.7,0.6-8.5,1.5c-2,1-3.5,2.6-4.5,4.5c-1,1.8-1.5,3.6-1.5,8.5v28.9c0,4.9,0.6,6.7,1.5,8.5c1,2,2.6,3.5,4.5,4.5
			c1.8,1,3.6,1.5,8.5,1.5h44.9c4.9,0,6.7-0.6,8.5-1.5c2-1,3.5-2.6,4.5-4.5c1-1.8,1.5-3.6,1.5-8.5v-28.9c0-4.9-0.6-6.7-1.5-8.5
			c-1-2-2.6-3.5-4.5-4.5C64.1,1582.6,62.4,1582,57.4,1582z"/>
		<path id="Path_00000000902904368309127900000004053628042839582096_" class="st22" d="M70,1620v5.4c0,4.4-0.5,6-1.3,7.5
			s-2.1,2.9-3.7,3.7c-1.6,0.9-3.2,1.3-7.5,1.3H12.6c-4.4,0-6-0.5-7.5-1.3s-2.9-2.1-3.7-3.7s-1.3-3.2-1.3-7.5v-5.4H70z"/>
		<path id="Path_00000165203613571377941910000004250181344730311833_" class="st9" d="M12.6,1584h44.9c4.4,0,6,0.5,7.5,1.3
			c1.6,0.9,2.9,2.1,3.7,3.7s1.3,3.2,1.3,7.5v5.4H0v-5.4c0-4.4,0.5-6,1.3-7.5s2.1-2.9,3.7-3.7S8.2,1584,12.6,1584z"/>
	</g>
</g>
<g id="cy">
	<g id="Group_00000018950498707933491810000001156513245940099234_" transform="translate(6.000000, 6.000000)">
		<path id="Rectangle-3_00000129163403971363459830000005134537455655365770_" class="st7" d="M57.4,1648H12.6
			c-4.9,0-6.7,0.6-8.5,1.5c-2,1-3.5,2.6-4.5,4.5c-1,1.8-1.5,3.6-1.5,8.5v28.9c0,4.9,0.6,6.7,1.5,8.5c1,2,2.6,3.5,4.5,4.5
			c1.8,1,3.6,1.5,8.5,1.5h44.9c4.9,0,6.7-0.6,8.5-1.5c2-1,3.5-2.6,4.5-4.5c1-1.8,1.5-3.6,1.5-8.5v-28.9c0-4.9-0.6-6.7-1.5-8.5
			c-1-2-2.6-3.5-4.5-4.5C64.1,1648.6,62.4,1648,57.4,1648z"/>
		<path id="Combined-Shape_00000105421230366407665090000015604230462290177424_" class="st22" d="M70,1677v14.4
			c0,4.4-0.5,6-1.3,7.5s-2.1,2.9-3.7,3.7c-1.6,0.9-3.2,1.3-7.5,1.3H12.6c-4.4,0-6-0.5-7.5-1.3s-2.9-2.1-3.7-3.7s-1.3-3.2-1.3-7.5
			V1677H70z"/>
		<path id="Rectangle_00000108306847692476813010000009143474964599987338_" class="st9" d="M37.2,1664h13.8c1.1,0,2,0.9,2,2
			c0,0.3-0.1,0.5-0.2,0.8l-3.6,8.2c-2.9,6.7-9.5,11-16.8,11H27c-3.9,0-7-3.1-7-7v-5l0,0l10-4v0.4c0,0.9,0.7,1.6,1.6,1.6
			c0.9,0,1.6-0.7,1.6-1.6v-2.4C33.2,1665.8,35,1664,37.2,1664z"/>
		<path id="Rectangle-Copy" class="st9" d="M23,1662h4c1.7,0,3,1.3,3,3v9l0,0H20v-9C20,1663.3,21.3,1662,23,1662z"/>
		<path id="Rectangle-Copy-2" class="st9" d="M18,1665h5l0,0v5H13C13,1667.2,15.2,1665,18,1665z"/>
		<path id="Rectangle-Copy-4_00000009584242923659556200000004794472386049471166_" class="st9" d="M23,1662h10c0,2.2-1.8,4-4,4h-6
			l0,0V1662z"/>
		<path id="Rectangle-Copy-3" class="st9" d="M19,1672c-1.7,0-3-1.8-3-4h10v4H19z"/>
		<path id="Path_00000128448949438565829900000018410878092341187224_" class="st9" d="M31,1685.9v-5h19.5c1.4,0,2.5-1.1,2.5-2.5
			v-3.4h5v3.4c0,4.1-3.4,7.5-7.5,7.5H31z"/>
		<path id="Triangle_00000023979304547781790120000018289253013536996230_" class="st9" d="M56.3,1671.1l4,5.7
			c0.3,0.5,0.2,1.1-0.3,1.4c-0.3,0.2-0.6,0.2-0.9,0.1l-3.7-1.2l0,0l-3.7,1.2c-0.5,0.2-1.1-0.1-1.3-0.6c-0.1-0.3,0-0.6,0.1-0.9l4-5.7
			c0.3-0.5,0.9-0.6,1.4-0.3C56.2,1670.9,56.3,1671,56.3,1671.1z"/>
		<path id="Path_00000111870711470951849500000005263196333733466793_" class="st9" d="M26,1688h3c2.2,0,4,1.8,4,4c0,0.6-0.4,1-1,1
			h-9c-0.6,0-1-0.4-1-1C22,1689.8,23.8,1688,26,1688z"/>
		<rect id="Rectangle_00000032610276836241121990000014865438058435026090_" x="28" y="1682" class="st9" width="5" height="10"/>
		<path id="Path_00000095297676854811254320000009041750598615572884_" class="st9" d="M18,1681.9v2c0,2.2-1.8,4-4,4
			c-0.6,0-1-0.4-1-1v-8c0-0.6,0.4-1,1-1C16.2,1677.9,18,1679.6,18,1681.9z"/>
		
			<rect id="Rectangle_00000062888571171701951890000008454195307218333586_" x="13.5" y="1680.9" transform="matrix(0.9659 -0.2588 0.2588 0.9659 -434.9881 62.8013)" class="st9" width="15" height="5"/>
		<path id="Path_00000016772304328987763730000009519453576957132447_" class="st9" d="M42,1688h4c2.2,0,4,1.8,4,4c0,0.6-0.4,1-1,1
			H39c-0.6,0-1-0.4-1-1C38,1689.8,39.8,1688,42,1688z"/>
		
			<rect id="Rectangle-Copy-7" x="42.2" y="1681.6" transform="matrix(0.866 -0.5 0.5 0.866 -837.3061 248.2914)" class="st9" width="5" height="10"/>
	</g>
</g>
<g id="uk">
	<g id="Group_00000003107027634770269150000016256293606568106933_" transform="translate(6.000000, 6.000000)">
		<path id="Rectangle-3_00000003106906836456950630000003018131547798307513_" class="st15" d="M57.4,1714H12.6
			c-4.9,0-6.7,0.6-8.5,1.5c-2,1-3.5,2.6-4.5,4.5c-1,1.8-1.5,3.6-1.5,8.5v28.9c0,4.9,0.6,6.7,1.5,8.5c1,2,2.6,3.5,4.5,4.5
			c1.8,1,3.6,1.5,8.5,1.5h44.9c4.9,0,6.7-0.6,8.5-1.5c2-1,3.5-2.6,4.5-4.5c1-1.8,1.5-3.6,1.5-8.5v-28.9c0-4.9-0.6-6.7-1.5-8.5
			c-1-2-2.6-3.5-4.5-4.5C64.1,1714.6,62.4,1714,57.4,1714z"/>
		<path id="Path_00000124841994069872632490000016118187256513347238_" class="st14" d="M70,1743v14.4c0,4.4-0.5,6-1.3,7.5
			s-2.1,2.9-3.7,3.7c-1.6,0.9-3.2,1.3-7.5,1.3H12.6c-4.4,0-6-0.5-7.5-1.3s-2.9-2.1-3.7-3.7s-1.3-3.2-1.3-7.5V1743H70z"/>
	</g>
</g>
<g id="kl">
	<g id="Group_00000077306930922017027030000006479394484060793754_" transform="translate(6.000000, 6.000000)">
		<path id="Rectangle-3_00000143601550878005423960000010854021773914968741_" class="st10" d="M57.4,1780H12.6
			c-4.9,0-6.7,0.6-8.5,1.5c-2,1-3.5,2.6-4.5,4.5c-1,1.8-1.5,3.6-1.5,8.5v28.9c0,4.9,0.6,6.7,1.5,8.5c1,2,2.6,3.5,4.5,4.5
			c1.8,1,3.6,1.5,8.5,1.5h44.9c4.9,0,6.7-0.6,8.5-1.5c2-1,3.5-2.6,4.5-4.5c1-1.8,1.5-3.6,1.5-8.5v-28.9c0-4.9-0.6-6.7-1.5-8.5
			c-1-2-2.6-3.5-4.5-4.5C64.1,1780.6,62.4,1780,57.4,1780z"/>
		<circle id="Oval" class="st16" cx="35" cy="1809" r="16"/>
		<path id="Triangle_00000023982129753913934610000013795224259647113100_" class="st23" d="M36.8,1791.4l4.9,16.8
			c0.3,0.9,0,2-0.7,2.7L37,1815c-1,1.1-2.8,1.1-3.8,0c0,0,0,0,0,0l-4.1-4.1c-0.7-0.7-0.9-1.7-0.7-2.7l4.9-16.8
			c0.3-1,1.3-1.5,2.2-1.2C36.2,1790.4,36.7,1790.8,36.8,1791.4z"/>
		<path id="Path-3" class="st23" d="M26.9,1812.1c0.5,0.6,4.4,4.5,5,5.1c0.9,0.8,0.3,2.4-1,2.4c-2.8-0.1-5.3,0.8-7.3,2.5
			c-0.7,0.6-1.3,1.1-1.8,1.7c-0.3,0.3-0.5,0.6-0.6,0.7c-0.4,0.7-1.3,0.8-2,0.3c-4-3.2-1-11.1,6.2-13.1
			C26,1811.6,26.6,1811.7,26.9,1812.1z"/>
		<path id="Shape_00000010269309765961103300000000020014363540466570_" class="st23" d="M38.1,1818.7c-0.1-0.1-0.2-0.3-0.3-0.4
			c-0.1-0.5,0.1-1,0.5-1.3c0,0,0.1-0.1,0.1-0.1c0.1-0.1,0.3-0.3,0.6-0.6c0.2-0.2,0.5-0.5,0.9-0.9c0.2-0.2,0.5-0.5,1-1l0,0
			c1.6-1.7,2.4-2.4,2.7-2.7c0.6-0.6,1.7-0.3,2,0.5c0.8,2.1,2.2,3.6,4.1,4.6c0.7,0.4,1.3,0.6,2,0.8c0.4,0.1,0.6,0.2,0.8,0.2
			c0.8,0.1,1.2,1,0.9,1.7c-0.8,1.9-3.2,3.4-5.9,3.6C44.1,1823.3,40.9,1821.9,38.1,1818.7L38.1,1818.7L38.1,1818.7z M39.2,1816.7
			c0.1,0,0.1,0,0.2,0.1C39.4,1816.7,39.3,1816.7,39.2,1816.7L39.2,1816.7z"/>
	</g>
</g>
<g id="cs">
	<g id="Group_00000057842633421637741760000013269757392283997112_" transform="translate(6.000000, 6.000000)">
		<path id="Rectangle-3_00000129885184679857103600000018022799469714947490_" class="st7" d="M57.4,1846H12.6
			c-4.9,0-6.7,0.6-8.5,1.5c-2,1-3.5,2.6-4.5,4.5c-1,1.8-1.5,3.6-1.5,8.5v28.9c0,4.9,0.6,6.7,1.5,8.5c1,2,2.6,3.5,4.5,4.5
			c1.8,1,3.6,1.5,8.5,1.5h44.9c4.9,0,6.7-0.6,8.5-1.5c2-1,3.5-2.6,4.5-4.5c1-1.8,1.5-3.6,1.5-8.5v-28.9c0-4.9-0.6-6.7-1.5-8.5
			c-1-2-2.6-3.5-4.5-4.5C64.1,1846.6,62.4,1846,57.4,1846z"/>
		<path id="Path_00000129171665292642092630000007666301181611704714_" class="st9" d="M70,1875v14.4c0,4.4-0.5,6-1.3,7.5
			s-2.1,2.9-3.7,3.7c-1.6,0.9-3.2,1.3-7.5,1.3H12.6c-4.4,0-6-0.5-7.5-1.3s-2.9-2.1-3.7-3.7s-1.3-3.2-1.3-7.5V1875H70z"/>
		<path id="Path_00000109748909721355268010000007136021951385101960_" class="st8" d="M3.3,1899.5c-0.8-0.7-1.4-1.5-2-2.5
			c-0.9-1.6-1.3-3.2-1.3-7.5v-28.9c0-4.4,0.5-6,1.3-7.5c0.5-1,1.2-1.8,2-2.5L35,1875L3.3,1899.5L3.3,1899.5z"/>
	</g>
</g>
<g id="hi">
	<g id="Group_00000026158050128815197630000013508529096575742868_" transform="translate(6.000000, 6.000000)">
		<path id="Rectangle-3_00000062177631425203390580000003128887120025860258_" class="st7" d="M57.4,1912H12.6
			c-4.9,0-6.7,0.6-8.5,1.5c-2,1-3.5,2.6-4.5,4.5c-1,1.8-1.5,3.6-1.5,8.5v28.9c0,4.9,0.6,6.7,1.5,8.5c1,2,2.6,3.5,4.5,4.5
			c1.8,1,3.6,1.5,8.5,1.5h44.9c4.9,0,6.7-0.6,8.5-1.5c2-1,3.5-2.6,4.5-4.5c1-1.8,1.5-3.6,1.5-8.5v-28.9c0-4.9-0.6-6.7-1.5-8.5
			c-1-2-2.6-3.5-4.5-4.5C64.1,1912.6,62.4,1912,57.4,1912z"/>
		<path id="Path_00000031187922154842466910000004311020639679756951_" class="st18" d="M12.6,1914h44.9c4.4,0,6,0.5,7.5,1.3
			c1.6,0.9,2.9,2.1,3.7,3.7s1.3,3.2,1.3,7.5v3.4H0v-3.4c0-4.4,0.5-6,1.3-7.5s2.1-2.9,3.7-3.7S8.2,1914,12.6,1914z"/>
		<path id="Path_00000003095609212853073350000010924875533763809975_" class="st22" d="M70,1952v3.4c0,4.4-0.5,6-1.3,7.5
			s-2.1,2.9-3.7,3.7c-1.6,0.9-3.2,1.3-7.5,1.3H12.6c-4.4,0-6-0.5-7.5-1.3s-2.9-2.1-3.7-3.7s-1.3-3.2-1.3-7.5v-3.4H70z"/>
		<path id="Oval_00000176042554535872262690000005761426920948513433_" class="st8" d="M35,1949c-4.4,0-8-3.6-8-8s3.6-8,8-8
			s8,3.6,8,8S39.4,1949,35,1949z M35,1945c2.2,0,4-1.8,4-4s-1.8-4-4-4s-4,1.8-4,4S32.8,1945,35,1945z"/>
	</g>
</g>
<g id="id">
	<g id="Group_00000120558586780247286960000012737768227359010177_" transform="translate(6.000000, 6.000000)">
		<path id="Rectangle-3_00000150800877660440039110000007818714159454751630_" class="st10" d="M57.4,1978H12.6
			c-4.9,0-6.7,0.6-8.5,1.5c-2,1-3.5,2.6-4.5,4.5c-1,1.8-1.5,3.6-1.5,8.5v28.9c0,4.9,0.6,6.7,1.5,8.5c1,2,2.6,3.5,4.5,4.5
			c1.8,1,3.6,1.5,8.5,1.5h44.9c4.9,0,6.7-0.6,8.5-1.5c2-1,3.5-2.6,4.5-4.5c1-1.8,1.5-3.6,1.5-8.5v-28.9c0-4.9-0.6-6.7-1.5-8.5
			c-1-2-2.6-3.5-4.5-4.5C64.1,1978.6,62.4,1978,57.4,1978z"/>
		<path id="Path_00000126303019071197889220000014256490121936051358_" class="st16" d="M70,2007v14.4c0,4.4-0.5,6-1.3,7.5
			s-2.1,2.9-3.7,3.7c-1.6,0.9-3.2,1.3-7.5,1.3H12.6c-4.4,0-6-0.5-7.5-1.3s-2.9-2.1-3.7-3.7s-1.3-3.2-1.3-7.5V2007H70z"/>
	</g>
</g>
<g id="ha">
	<g id="Group_00000132051548052967326720000006441650043348605621_" transform="translate(6.000000, 6.000000)">
		<path id="Rectangle-3_00000078033738228703126310000013030876962057807798_" class="st7" d="M57.4,2044H12.6
			c-4.9,0-6.7,0.6-8.5,1.5c-2,1-3.5,2.6-4.5,4.5c-1,1.8-1.5,3.6-1.5,8.5v28.9c0,4.9,0.6,6.7,1.5,8.5c1,2,2.6,3.5,4.5,4.5
			c1.8,1,3.6,1.5,8.5,1.5h44.9c4.9,0,6.7-0.6,8.5-1.5c2-1,3.5-2.6,4.5-4.5c1-1.8,1.5-3.6,1.5-8.5v-28.9c0-4.9-0.6-6.7-1.5-8.5
			c-1-2-2.6-3.5-4.5-4.5C64.1,2044.6,62.4,2044,57.4,2044z"/>
		<rect id="Rectangle-4-Copy-5" y="2055" class="st1" width="70" height="9"/>
		<rect id="Rectangle-4-Copy" y="2064" class="st25" width="70" height="9"/>
		<path id="Path_00000003100585520477429880000016466000162636022204_" class="st26" d="M39,2046v27H0v-14.4c0-4.4,0.5-6,1.3-7.5
			c0.9-1.6,2.1-2.9,3.7-3.7l0.4-0.2c1.5-0.7,3.1-1.1,7.1-1.1H39z"/>
		<path id="Path_00000140003868890889419180000013550184682378857623_" class="st16" d="M17,2046v8.9l2.5,1.8l2.5-1.8v-8.9h3v6.7
			l9.3-6.7H39v2.7l-7.2,5.3H39v3H27.6l-3.9,2.8l3,2.2H39v3h-8.2l8.2,5.9v2.1h-5.7l-8.3-6.1v6.1h-3v-8.2l-2.5-1.8l-2.5,1.8v8.3h-3
			v-6.1l-8.4,6.1H0v-2.1l8.1-5.9H0v-3h12.2l3-2.2l-3.9-2.8L0,2057c0-1.2,0.1-2.2,0.3-3l6.9,0l-5.3-3.9c0.8-1.2,1.9-2.1,3.2-2.8
			c0.3-0.2,0.6-0.3,0.9-0.4l8.1,5.9v-6.8H17z"/>
		<path id="Path_00000170974254668507918050000003144192931889123005_" class="st26" d="M69.8,2091c-0.2,1.9-0.6,2.9-1.2,4
			c-0.9,1.6-2.1,2.9-3.7,3.7c-1.6,0.9-3.2,1.3-7.5,1.3H12.6c-4.4,0-6-0.5-7.5-1.3c-1.6-0.9-2.9-2.1-3.7-3.7c-0.6-1.1-1-2.1-1.2-4
			H69.8z"/>
		<path id="Path_00000016040835878445296470000002682458636059419019_" class="st9" d="M70,2087.4c0,1.5-0.1,2.6-0.2,3.6H0.2
			c-0.1-0.9-0.2-2.1-0.2-3.6v-5.4h70V2087.4z"/>
		<polygon id="Path_00000179620092913154333530000002300182696613979040_" class="st9" points="22,2057 39,2057 39,2062 22,2062 
			22,2073 17,2073 17,2062 0,2062 0,2057 17,2057 17,2046 22,2046 		"/>
	</g>
</g>
<g id="nv">
	<g id="Group_00000044142936362936832190000011519206202643953340_" transform="translate(6.000000, 6.000000)">
		<path id="Rectangle-3_00000088845809097915561690000007780374676588579230_" class="st27" d="M57.4,2110H12.6
			c-4.9,0-6.7,0.6-8.5,1.5c-2,1-3.5,2.6-4.5,4.5c-1,1.8-1.5,3.6-1.5,8.5v28.9c0,4.9,0.6,6.7,1.5,8.5c1,2,2.6,3.5,4.5,4.5
			c1.8,1,3.6,1.5,8.5,1.5h44.9c4.9,0,6.7-0.6,8.5-1.5c2-1,3.5-2.6,4.5-4.5c1-1.8,1.5-3.6,1.5-8.5v-28.9c0-4.9-0.6-6.7-1.5-8.5
			c-1-2-2.6-3.5-4.5-4.5C64.1,2110.6,62.4,2110,57.4,2110z"/>
		<path id="Star_00000019651023308675512250000009354234354160147644_" class="st23" d="M34,2125l-0.6,8.7c0,0.6-0.6,1.1-1.2,1
			c0,0,0,0,0,0l-1.9-0.2c-0.6-0.1-1.1,0.4-1.2,1c0,0.3,0.1,0.6,0.2,0.8l1.2,1.5c0.3,0.4,0.3,1.1-0.1,1.5l-1.4,1.4
			c-0.4,0.4-0.4,1.1,0,1.6c0.2,0.2,0.5,0.3,0.8,0.3l2.1,0.1c0.4,0,0.8,0.3,1,0.6l1.2,2.5c0.3,0.6,0.9,0.8,1.5,0.5
			c0.2-0.1,0.4-0.3,0.5-0.5l1.3-2.5c0.2-0.4,0.6-0.6,1-0.6H40c0.6,0,1.1-0.5,1.1-1.1c0-0.3-0.1-0.5-0.3-0.7l-1.4-1.6
			c-0.3-0.4-0.3-0.9-0.1-1.3l1.1-1.7c0.3-0.5,0.2-1.2-0.4-1.5c-0.2-0.1-0.4-0.2-0.7-0.2l-1.6,0.1c-0.6,0.1-1.2-0.4-1.2-1l0,0
			l-0.8-8.7c0-0.3,0.1-0.7,0.3-0.9l3.1-3c0.7-0.6,1.7-0.6,2.4,0c0.2,0.2,0.3,0.4,0.4,0.6l1.3,3.6c0.2,0.6,0.8,1.1,1.5,1.1l4.2,0.2
			c0.9,0,1.6,0.8,1.6,1.7c0,0.1,0,0.3-0.1,0.4l-1.1,4.1c-0.2,0.6,0,1.3,0.6,1.7l3.3,2.7c0.7,0.6,0.8,1.6,0.3,2.3
			c-0.1,0.1-0.2,0.2-0.3,0.3l-3.3,2.7c-0.5,0.4-0.7,1.1-0.6,1.7l1.1,4.1c0.2,0.9-0.3,1.8-1.2,2.1c-0.1,0-0.2,0.1-0.4,0.1l-4.2,0.2
			c-0.7,0-1.3,0.5-1.5,1.1l-1.5,4c-0.3,0.9-1.3,1.3-2.1,1c-0.1,0-0.2-0.1-0.4-0.2l-3.5-2.3c-0.6-0.4-1.3-0.4-1.9,0l-3.5,2.3
			c-0.8,0.5-1.8,0.3-2.3-0.5c-0.1-0.1-0.1-0.2-0.2-0.4l-1.5-4c-0.2-0.6-0.8-1.1-1.5-1.1l-4.2-0.2c-0.9,0-1.6-0.8-1.6-1.7
			c0-0.1,0-0.3,0.1-0.4l1.1-4.1c0.2-0.6,0-1.3-0.6-1.7l-3.3-2.7c-0.7-0.6-0.8-1.6-0.3-2.3c0.1-0.1,0.2-0.2,0.3-0.3l3.3-2.7
			c0.5-0.4,0.7-1.1,0.6-1.7l-1.1-4.1c-0.2-0.9,0.3-1.8,1.2-2.1c0.1,0,0.2-0.1,0.4-0.1l4.2-0.2c0.7,0,1.3-0.5,1.5-1.1l1.3-3.5
			c0.3-0.9,1.3-1.3,2.1-1c0.2,0.1,0.4,0.2,0.6,0.4l3,3C33.9,2124.3,34,2124.7,34,2125L34,2125z"/>
		<path id="Path_00000028305847937888519340000016353565145900575644_" class="st9" d="M21.5,2139.1c0-6.2,4.2-11.6,10.1-13.2
			c0.5-0.1,0.9,0.2,0.9,0.7l0,3.5c0,0.3-0.2,0.6-0.5,0.7c-3.4,1.3-5.7,4.6-5.7,8.3c0,4.9,3.9,8.8,8.7,8.8s8.7-3.9,8.7-8.8
			c0-3.7-2.3-7-5.7-8.3c-0.3-0.1-0.5-0.4-0.5-0.7l0-3.5c0-0.5,0.4-0.8,0.9-0.7c5.9,1.5,10.1,7,10.1,13.2c0,7.5-6,13.6-13.5,13.6
			S21.5,2146.6,21.5,2139.1z"/>
	</g>
</g>
<g id="ar">
	<g id="Group_00000049223984653138912240000011600688814816346791_" transform="translate(6.000000, 6.000000)">
		<path id="Rectangle-3_00000026149955830361742850000011582612278743003808_" class="st24" d="M57.4,2176H12.6
			c-4.9,0-6.7,0.6-8.5,1.5c-2,1-3.5,2.6-4.5,4.5c-1,1.8-1.5,3.6-1.5,8.5v28.9c0,4.9,0.6,6.7,1.5,8.5c1,2,2.6,3.5,4.5,4.5
			c1.8,1,3.6,1.5,8.5,1.5h44.9c4.9,0,6.7-0.6,8.5-1.5c2-1,3.5-2.6,4.5-4.5c1-1.8,1.5-3.6,1.5-8.5v-28.9c0-4.9-0.6-6.7-1.5-8.5
			c-1-2-2.6-3.5-4.5-4.5C64.1,2176.6,62.4,2176,57.4,2176z"/>
	</g>
	<g id="Group-3_00000047018437070752639850000012455326256366764728_" transform="translate(27.000000, 12.000000)">
		<g id="Group_00000005265950186065367780000011064312780285511575_" transform="translate(0.000000, 5.000000)">
			<path id="Oval_00000156586534047332095750000009517668146690457266_" class="st28" d="M14.5,2208.1c8,0,14.5-6.3,14.5-14
				c0-7.7-6.5-14-14.5-14s-14.5,6.3-14.5,14C0,2201.8,6.5,2208.1,14.5,2208.1z"/>
			<path id="Path-6-Copy" class="st29" d="M15.3,2180.7c2.2,0,4.1,0.1,4.7-2.7"/>
			<path id="Triangle_00000045612826386269881160000012354205243822304956_" class="st6" d="M16,2209.4l-9,2.5
				c-1.1,0.3-2.2-0.3-2.5-1.4c-0.1-0.4-0.1-0.8,0.1-1.2l0.9-2.4c0.3-0.8,1.2-1.3,2.1-0.9c0,0,0,0,0.1,0L16,2209.4L16,2209.4z"/>
			<path id="Triangle-Copy" class="st6" d="M13,2209.4l9,2.5c1.1,0.3,2.2-0.3,2.5-1.4c0.1-0.4,0.1-0.8-0.1-1.2l-0.9-2.4
				c-0.3-0.8-1.2-1.3-2.1-0.9c0,0,0,0-0.1,0L13,2209.4L13,2209.4z"/>
			<path id="Path-8" class="st30" d="M15.1,2179.9l-3.9,0.8l-0.4,0.9c1.1-0.2,2.4-0.3,4-0.4c1.4-0.1,2.5-0.6,3.4-1.6L15.1,2179.9z"
				/>
		</g>
		<g id="Group-2_00000102546652654134790010000009191638907296196779_" transform="translate(5.000000, 9.000000)">
			<circle id="Oval_00000103261511353902530570000003002880611035824260_" class="st6" cx="9.5" cy="2189.5" r="9.5"/>
			<circle id="Oval-Copy" class="st31" cx="9.5" cy="2185.5" r="7.5"/>
		</g>
		<path id="Combined-Shape_00000022539488605379152540000000081430609197567617_" class="st32" d="M14.2,2185.8
			c-0.2-1.6,0.3-3.2,1.5-4.3c1.1-1.1,2.7-1.6,4.2-1.4c0.2,1.6-0.3,3.2-1.5,4.3C17.2,2185.6,15.7,2186,14.2,2185.8L14.2,2185.8z"/>
		<path id="Combined-Shape-Copy" class="st32" d="M14.8,2185.8c0.2-1.6-0.3-3.2-1.5-4.3c-1.1-1.1-2.7-1.6-4.2-1.4
			c-0.2,1.6,0.3,3.2,1.5,4.3C11.8,2185.6,13.3,2186,14.8,2185.8L14.8,2185.8z"/>
	</g>
</g>
<g id="ca">
	<g id="Group_00000099660524710023054430000001348113736875536043_" transform="translate(6.000000, 6.000000)">
		<path id="Rectangle-3_00000012470475825551149750000004306429375054386601_" class="st4" d="M57.4,2242H12.6
			c-4.9,0-6.7,0.6-8.5,1.5c-2,1-3.5,2.6-4.5,4.5c-1,1.8-1.5,3.6-1.5,8.5v28.9c0,4.9,0.6,6.7,1.5,8.5c1,2,2.6,3.5,4.5,4.5
			c1.8,1,3.6,1.5,8.5,1.5h44.9c4.9,0,6.7-0.6,8.5-1.5c2-1,3.5-2.6,4.5-4.5c1-1.8,1.5-3.6,1.5-8.5v-28.9c0-4.9-0.6-6.7-1.5-8.5
			c-1-2-2.6-3.5-4.5-4.5C64.1,2242.6,62.4,2242,57.4,2242z"/>
		<path id="Path_00000014617198749984656090000002972863589420261309_" class="st33" d="M12.6,2244h44.9c4.4,0,6,0.5,7.5,1.3
			c1.6,0.9,2.9,2.1,3.7,3.7c0.2,0.3,0.3,0.6,0.5,1H0.8c0.1-0.3,0.3-0.7,0.5-1c0.9-1.6,2.1-2.9,3.7-3.7
			C6.6,2244.5,8.2,2244,12.6,2244z"/>
		<path id="Path_00000041271974815284538730000012890108370024012204_" class="st33" d="M70,2256c0,0.2,0,0.4,0,0.6v5.4H0v-5.4
			c0-0.2,0-0.4,0-0.6H70z"/>
		<polygon id="Path_00000001639066604372745250000009899334893778847112_" class="st33" points="70,2268 70,2274 0,2274 0,2268 		
			"/>
		<path id="Path_00000088128329248760447180000005619795831533597361_" class="st33" d="M70,2285.4c0,0.2,0,0.4,0,0.6H0
			c0-0.2,0-0.4,0-0.6v-5.4h70V2285.4z"/>
		<path id="Path_00000021826890201686258880000003270118504034416523_" class="st33" d="M69.2,2292c-0.1,0.3-0.3,0.7-0.5,1
			c-0.9,1.6-2.1,2.9-3.7,3.7c-1.6,0.9-3.2,1.3-7.5,1.3H12.6c-4.4,0-6-0.5-7.5-1.3c-1.6-0.9-2.9-2.1-3.7-3.7c-0.2-0.3-0.3-0.6-0.5-1
			H69.2z"/>
	</g>
</g>
<g id="th">
	<g id="Group_00000129923806826101649580000006228746432690461582_" transform="translate(6.000000, 6.000000)">
		<path id="Rectangle-3_00000129187781161330049460000004199548023730435985_" class="st16" d="M12.6,2310h44.9c4.4,0,6,0.5,7.5,1.3
			c1.6,0.9,2.9,2.1,3.7,3.7c0.9,1.6,1.3,3.2,1.3,7.5v28.9c0,4.4-0.5,6-1.3,7.5c-0.9,1.6-2.1,2.9-3.7,3.7c-1.6,0.9-3.2,1.3-7.5,1.3
			H12.6c-4.4,0-6-0.5-7.5-1.3c-1.6-0.9-2.9-2.1-3.7-3.7c-0.9-1.6-1.3-3.2-1.3-7.5v-28.9c0-4.4,0.5-6,1.3-7.5
			c0.9-1.6,2.1-2.9,3.7-3.7C6.6,2310.5,8.2,2310,12.6,2310z"/>
		<path id="Rectangle-3_00000116932696335787143180000012266991776578778297_" class="st7" d="M57.4,2308H12.6
			c-4.9,0-6.7,0.6-8.5,1.5c-2,1-3.5,2.6-4.5,4.5c-1,1.8-1.5,3.6-1.5,8.5v28.9c0,4.9,0.6,6.7,1.5,8.5c1,2,2.6,3.5,4.5,4.5
			c1.8,1,3.6,1.5,8.5,1.5h44.9c4.9,0,6.7-0.6,8.5-1.5c2-1,3.5-2.6,4.5-4.5c1-1.8,1.5-3.6,1.5-8.5v-28.9c0-4.9-0.6-6.7-1.5-8.5
			c-1-2-2.6-3.5-4.5-4.5C64.1,2308.6,62.4,2308,57.4,2308z"/>
		<path id="Path_00000117658412391446174040000001340326302216266145_" class="st9" d="M69.7,2356c-0.2,1.3-0.6,2.1-1,3
			c-0.9,1.6-2.1,2.9-3.7,3.7c-1.6,0.9-3.2,1.3-7.5,1.3H12.6c-4.4,0-6-0.5-7.5-1.3c-1.6-0.9-2.9-2.1-3.7-3.7c-0.5-0.9-0.8-1.7-1-3
			H69.7L69.7,2356z"/>
		<polygon id="Rectangle-4_00000038375610522379338960000006963241218179878273_" class="st2" points="70,2326 70,2348 0,2348 
			0,2326 		"/>
		<path id="Path_00000155145780342155767880000015939990191839970997_" class="st9" d="M12.6,2310h44.9c4.4,0,6,0.5,7.5,1.3
			c1.6,0.9,2.9,2.1,3.7,3.7c0.5,0.9,0.8,1.7,1,3H0.3c0.2-1.3,0.6-2.1,1-3c0.9-1.6,2.1-2.9,3.7-3.7C6.6,2310.5,8.2,2310,12.6,2310z"
			/>
	</g>
</g>
<g id="gn">
	<g id="Group_00000009556932928757027720000014495916548290653370_" transform="translate(6.000000, 6.000000)">
		<path id="Rectangle-3_00000127037369517880779150000018281131775688790685_" class="st7" d="M57.4,2374H12.6
			c-4.9,0-6.7,0.6-8.5,1.5c-2,1-3.5,2.6-4.5,4.5c-1,1.8-1.5,3.6-1.5,8.5v28.9c0,4.9,0.6,6.7,1.5,8.5c1,2,2.6,3.5,4.5,4.5
			c1.8,1,3.6,1.5,8.5,1.5h44.9c4.9,0,6.7-0.6,8.5-1.5c2-1,3.5-2.6,4.5-4.5c1-1.8,1.5-3.6,1.5-8.5v-28.9c0-4.9-0.6-6.7-1.5-8.5
			c-1-2-2.6-3.5-4.5-4.5C64.1,2374.6,62.4,2374,57.4,2374z"/>
		<path id="Path_00000093859895256347009380000006986431520741439142_" class="st8" d="M70,2414v3.4c0,4.4-0.5,6-1.3,7.5
			c-0.9,1.6-2.1,2.9-3.7,3.7c-1.6,0.9-3.2,1.3-7.5,1.3H12.6c-4.4,0-6-0.5-7.5-1.3c-1.6-0.9-2.9-2.1-3.7-3.7
			c-0.9-1.6-1.3-3.2-1.3-7.5v-3.4H70z"/>
		<path id="Path_00000094597097939473604490000006397909770927316891_" class="st9" d="M12.6,2376h44.9c4.4,0,6,0.5,7.5,1.3
			c1.6,0.9,2.9,2.1,3.7,3.7c0.9,1.6,1.3,3.2,1.3,7.5v3.4H0v-3.4c0-4.4,0.5-6,1.3-7.5c0.9-1.6,2.1-2.9,3.7-3.7
			C6.6,2376.5,8.2,2376,12.6,2376z"/>
		<path id="Oval_00000175321804482439540450000003566166687911692976_" class="st9" d="M35,2412c-5,0-9-4-9-9s4-9,9-9s9,4,9,9
			S40,2412,35,2412z M35,2408c2.8,0,5-2.2,5-5s-2.2-5-5-5s-5,2.2-5,5S32.2,2408,35,2408z"/>
		<circle id="Oval_00000062158105531837829070000015530550378557986495_" class="st2" cx="35" cy="2403" r="3"/>
	</g>
</g>
<g id="ambassador">
	<g id="Group-5-Copy" transform="translate(6.000000, 6.000000)">
		<path id="Rectangle-3_00000145027504347381524590000003774073034299439776_" class="st34" d="M57.4,2440H12.6
			c-4.9,0-6.7,0.6-8.5,1.5c-2,1-3.5,2.6-4.5,4.5c-1,1.8-1.5,3.6-1.5,8.5v28.9c0,4.9,0.6,6.7,1.5,8.5c1,2,2.6,3.5,4.5,4.5
			c1.8,1,3.6,1.5,8.5,1.5h44.9c4.9,0,6.7-0.6,8.5-1.5c2-1,3.5-2.6,4.5-4.5c1-1.8,1.5-3.6,1.5-8.5v-28.9c0-4.9-0.6-6.7-1.5-8.5
			c-1-2-2.6-3.5-4.5-4.5C64.1,2440.6,62.4,2440,57.4,2440z"/>
		<path id="Path_00000158010529227797977880000015817339617161723831_" class="st18" d="M31.5,2442l6.3,3.4l-6.3,8.2l-2.5,9.5
			l-7-4.8v7l22.8,9.6L29.4,2496h-3.8l1.5-12.6l-6.3-5.6v-8.3l-8.3-8.3L4,2447.5l2.4-4.8c1.3-0.5,3-0.7,6.2-0.7H31.5z"/>
		<path id="Combined-Shape_00000028326639896779681530000016391011079221414038_" class="st35" d="M57.4,2442c4.4,0,6,0.5,7.5,1.3
			c1.6,0.9,2.9,2.1,3.7,3.7c0.9,1.6,1.3,3.2,1.3,7.5v28.9c0,3.4-0.3,5.1-0.8,6.5l-5.8-1.9l-1.3-13l-8.7-5.6v-13h8.3l-4.1-6.4h-5.9
			l3.1-8H57.4z"/>
		<g id="Group-7" transform="translate(4.000000, 0.000000)">
		</g>
	</g>
</g>
<g id="duolingo">
	<g id="Group-5-Copy-2" transform="translate(6.000000, 6.000000)">
		<path id="Rectangle-3_00000155126302996690693370000017254220873442120639_" class="st17" d="M57.4,2506H12.6
			c-4.9,0-6.7,0.6-8.5,1.5c-2,1-3.5,2.6-4.5,4.5c-1,1.8-1.5,3.6-1.5,8.5v28.9c0,4.9,0.6,6.7,1.5,8.5c1,2,2.6,3.5,4.5,4.5
			c1.8,1,3.6,1.5,8.5,1.5h44.9c4.9,0,6.7-0.6,8.5-1.5c2-1,3.5-2.6,4.5-4.5c1-1.8,1.5-3.6,1.5-8.5v-28.9c0-4.9-0.6-6.7-1.5-8.5
			c-1-2-2.6-3.5-4.5-4.5C64.1,2506.6,62.4,2506,57.4,2506z"/>
		<g id="Icon" transform="translate(4.000000, 0.000000)">
			<g id="Glyph-Copy-3" transform="translate(0.867188, 5.550781)">
				<g id="Group_00000082329111946815737670000015662448388886313889_" transform="translate(0.035890, 0.000000)">
					<path id="Combined-Shape-Copy-57" class="st36" d="M24.2,2520c0.9,0.9,0.6,2.4-0.5,2.9c-3.7,1.8-8.1,1-11-2
						c-2.9-3-3.5-7.5-1.6-11.1c0.6-1.1,1.8-1.3,2.7-0.4L24.2,2520z"/>
					<path id="Path-12" class="st37" d="M23,2518.8c3.7,3.7,10.1,3.7,14.2,0c4.1-3.7-0.6,21.5-0.6,21.5c0,0-2.2,0-6.5,0
						c-1.2,0-3.3,0-6.3,0C20.8,2523.5,20.5,2516.4,23,2518.8z"/>
					<path id="Combined-Shape-Copy-58" class="st36" d="M8.1,2513.3l9.9,11c0.8,0.9,0.5,2.4-0.6,2.9c-3.7,1.7-8.2,0.7-11-2.4
						c-2.8-3.1-3.3-7.6-1.2-11.1C5.8,2512.6,7.2,2512.4,8.1,2513.3z"/>
					
						<g id="Group-4" transform="translate(47.352758, 11.848706) scale(-1, 1) translate(-47.352758, -11.848706) translate(34.738341, 0.039135)">
						<path id="Combined-Shape-Copy-57_00000123402682222476214440000015672619884249748921_" class="st36" d="M23.9,2520
							c0.9,0.9,0.6,2.4-0.5,2.9c-3.7,1.8-8.1,1-11-2c-2.9-3-3.5-7.5-1.6-11.1c0.6-1.1,1.8-1.3,2.7-0.4L23.9,2520z"/>
						<path id="Combined-Shape-Copy-58_00000051372002422794543890000003390264329425177228_" class="st36" d="M7.8,2513.3l9.9,11
							c0.8,0.9,0.5,2.4-0.6,2.9c-3.7,1.7-8.2,0.7-11-2.4c-2.8-3.1-3.3-7.6-1.2-11.1C5.5,2512.5,7,2512.4,7.8,2513.3z"/>
					</g>
					<path id="Rectangle-130-Copy-36" class="st37" d="M13.1,2515h0.6c7.3,0,13.1,5.9,13.1,13.1v6.8c0,7.3-5.9,13.1-13.1,13.1h-0.6
						c-7.3,0-13.1-5.9-13.1-13.1v-6.8C0,2520.9,5.9,2515,13.1,2515z"/>
					<path id="Rectangle-130-Copy-37" class="st37" d="M46.5,2515h0.5c7.3,0,13.1,5.9,13.1,13.1v6.8c0,7.3-5.9,13.1-13.1,13.1h-0.4
						c-7.2,0-13.1-5.8-13.1-13l-0.1-6.8c-0.1-7.3,5.8-13.2,13-13.3C46.4,2515,46.4,2515,46.5,2515z"/>
					<path id="Rectangle-130-Copy-38" class="st6" d="M14,2519.7c5.1,0,9.2,4.1,9.2,9.2v5.4c0,5.1-4.1,9.2-9.2,9.2s-9.2-4.1-9.2-9.2
						v-5.4C4.8,2523.8,8.9,2519.7,14,2519.7z"/>
					<path id="Rectangle-130-Copy-39" class="st6" d="M46.1,2519.7c5.1,0,9.2,4.1,9.2,9.2v5.4c0,5.1-4.1,9.2-9.2,9.2
						s-9.2-4.1-9.2-9.2v-5.4C37,2523.8,41.1,2519.7,46.1,2519.7z"/>
					<path id="Rectangle-130-Copy-40" class="st38" d="M15.4,2524.9c2.4,0,4.3,1.9,4.3,4.3v4.6c0,2.4-1.9,4.3-4.3,4.3
						s-4.3-1.9-4.3-4.3v-4.6C11,2526.9,13,2524.9,15.4,2524.9z"/>
					<g id="Group-3_00000133522576689142974420000014510177554876008080_" transform="translate(23.234280, 27.443651)">
						<g id="Group-2_00000033350045985839181600000011881185467004014510_">
							<path id="Rectangle-2-Copy-9" class="st39" d="M6.9,2508c2.7,0,5,2.2,5,5v1.7c0,2.7-2.2,5-5,5s-5-2.2-5-5v-1.7
								C1.9,2510.2,4.1,2508,6.9,2508z"/>
							<path id="Combined-Shape-Copy-61" class="st40" d="M0,2513.5c0.6-3.2,3.5-5.5,7.1-5.5c3.2,0,6.1,2.3,6.7,5.5l0,0v0.3
								c0,0.2-0.1,0.3-0.3,0.3l-6.4,1.1c-0.2,0-0.2,0-0.4,0l-6.4-1.1c-0.2,0-0.3-0.1-0.3-0.3V2513.5L0,2513.5z"/>
							<path id="Rectangle_00000111174950161665018190000015492609006372605073_" class="st41" d="M5.8,2509.1
								c0.3-0.1,0.7-0.1,1-0.1c0.4,0,0.7,0,1.1,0.1c0.7,0.2,1.3,0.9,1.3,1.6c0,0.6-0.5,1.1-1.1,1.1H5.6c-0.6,0-1.1-0.5-1.1-1.1
								C4.5,2510,5,2509.3,5.8,2509.1z"/>
						</g>
					</g>
					<path id="Rectangle-130-Copy-41" class="st38" d="M44.7,2524.9c2.4,0,4.3,1.9,4.3,4.3v4.6c0,2.4-1.9,4.3-4.3,4.3
						c-2.4,0-4.3-1.9-4.3-4.3v-4.6C40.4,2526.9,42.3,2524.9,44.7,2524.9z"/>
					<ellipse id="Oval-10-Copy-4" class="st6" cx="11.7" cy="2527.4" rx="2.8" ry="2.8"/>
					<ellipse id="Oval-10-Copy-5" class="st6" cx="40.6" cy="2527.4" rx="2.8" ry="2.8"/>
				</g>
			</g>
		</g>
	</g>
</g>
<g id="troubleshooting">
	<g id="Group-5-Copy-3" transform="translate(6.000000, 6.000000)">
		<path id="Rectangle-3_00000035514205823706785180000012414812783027702170_" class="st15" d="M57.4,2572H12.6
			c-4.9,0-6.7,0.6-8.5,1.5c-2,1-3.5,2.6-4.5,4.5c-1,1.8-1.5,3.6-1.5,8.5v28.9c0,4.9,0.6,6.7,1.5,8.5c1,2,2.6,3.5,4.5,4.5
			c1.8,1,3.6,1.5,8.5,1.5h44.9c4.9,0,6.7-0.6,8.5-1.5c2-1,3.5-2.6,4.5-4.5c1-1.8,1.5-3.6,1.5-8.5v-28.9c0-4.9-0.6-6.7-1.5-8.5
			c-1-2-2.6-3.5-4.5-4.5C64.1,2572.6,62.4,2572,57.4,2572z"/>
		
			<g id="Group_00000075882226234789248090000000590627809183408538_" transform="translate(33.627417, 26.627417) scale(-1, 1) rotate(45.000000) translate(-33.627417, -26.627417) translate(26.627417, 1.627417)">
			<path id="Rectangle_00000003091217524404226340000014753758292283828904_" class="st42" d="M1826.8,1827.9L1826.8,1827.9
				c1.2,0,2.2,1,2.2,2.2v31.1c0,1.2-1,2.2-2.2,2.2l0,0c-1.2,0-2.2-1-2.2-2.2v-31.1C1824.5,1828.9,1825.5,1827.9,1826.8,1827.9z"/>
			<path id="Combined-Shape_00000142875768110531298710000007289161561647872185_" class="st43" d="M1832.4,1842.5
				c0.9,0,1.7,0.7,1.7,1.7v0.8c0,1.3-1.1,2.4-2.4,2.4l-0.3,0c1.7,1.2,2.7,3.2,2.7,5.4v10.6c0,3.7-3,6.7-6.7,6.7h-0.6
				c-3.7,0-6.7-3-6.7-6.7v-10.6c0-2.2,1.1-4.2,2.7-5.4l-0.3,0c-1.3,0-2.4-1.1-2.4-2.4v-0.8c0-0.9,0.7-1.7,1.7-1.7H1832.4z"/>
			<path id="Rectangle_00000083783106703641534770000009077153148412739233_" class="st42" d="M1825.6,1820.5h2.7
				c0.4,0,0.7,0.3,0.8,0.6l1.8,6.5c0.1,0.2,0,0.4-0.1,0.6l-1.6,3.3c-0.1,0.3-0.4,0.5-0.7,0.5h-2.9c-0.3,0-0.6-0.2-0.7-0.5l-1.6-3.3
				c-0.1-0.2-0.1-0.4-0.1-0.6l1.8-6.5C1824.8,1820.7,1825.2,1820.5,1825.6,1820.5z"/>
			<path id="Rectangle_00000062890268792023827600000003147069456991820424_" class="st44" d="M1827.2,1849.8L1827.2,1849.8
				c0.6,0,1.2,0.5,1.2,1.2v14.6c0,0.6-0.5,1.2-1.2,1.2l0,0c-0.6,0-1.2-0.5-1.2-1.2V1851C1826,1850.4,1826.5,1849.8,1827.2,1849.8z"
				/>
			<path id="Rectangle-Copy-2_00000098195285325932340630000009819782609852224922_" class="st44" d="M1831,1851.5L1831,1851.5
				c0.6,0,1.2,0.5,1.2,1.2v10.9c0,0.6-0.5,1.2-1.2,1.2l0,0c-0.6,0-1.2-0.5-1.2-1.2v-10.9C1829.8,1852,1830.4,1851.5,1831,1851.5z"/>
			<path id="Rectangle-Copy-3_00000162337255956920722790000017913175056671885203_" class="st44" d="M1823,1851.5L1823,1851.5
				c0.6,0,1.2,0.5,1.2,1.2v10.9c0,0.6-0.5,1.2-1.2,1.2l0,0c-0.6,0-1.2-0.5-1.2-1.2v-10.9C1821.8,1852,1822.3,1851.5,1823,1851.5z"/>
		</g>
		
			<g id="Group_00000022552619307001559110000001338143126991830436_" transform="translate(34.000000, 28.000000) rotate(45.000000) translate(-34.000000, -28.000000) translate(24.000000, 6.000000)">
			<path id="Combined-Shape_00000166675104563534460390000002426960735493688732_" class="st45" d="M1833.2,1832.4
				c1.7,0,3.2,1.4,3.2,3.2v22c0,3.3-2.7,5.9-5.9,5.9s-5.9-2.7-5.9-5.9v-22c0-1.7,1.4-3.2,3.2-3.2H1833.2z M1830.8,1854.8h-0.3
				c-0.1,0-0.2,0-0.3,0c-1.4,0.2-2.4,1.4-2.2,2.8l0,0l0.1,0.4c0,0,0,0,0,0c0.2,1.4,1.5,2.3,2.8,2.1c1.4-0.2,2.5-1.4,2.5-2.9l0,0v0
				C1833.3,1856,1832.2,1854.8,1830.8,1854.8L1830.8,1854.8z"/>
			<path id="Rectangle_00000134954641780424995520000003911817917190141101_" class="st42" d="M1830.1,1834.7L1830.1,1834.7
				c0.9,0,1.6,0.7,1.6,1.6v13.2c0,0.9-0.7,1.6-1.6,1.6l0,0c-0.9,0-1.6-0.7-1.6-1.6v-13.2C1828.5,1835.4,1829.2,1834.7,1830.1,1834.7
				z"/>
			<path id="Combined-Shape_00000034065646465795125900000005939382439516927879_" class="st45" d="M1825,1820.3
				c0.5,0,0.9,0.4,0.9,0.9l0,0v8.3c0,0.8,0.6,1.4,1.4,1.4l0,0h5.5c0.8,0,1.4-0.6,1.4-1.4l0,0v-8.3c0-0.2,0-0.3,0.1-0.4
				c0.2-0.4,0.8-0.6,1.2-0.3l0,0l0.8,0.4c2.3,1.7,3.7,4.4,3.7,7.5c0,5.2-4.2,9.4-9.4,9.4h-1.2c-5.2,0-9.4-4.2-9.4-9.4
				c0-3.1,1.5-5.8,3.7-7.5l0.8-0.4C1824.7,1820.3,1824.9,1820.3,1825,1820.3z"/>
		</g>
	</g>
</g>
<g id="teachers">
	<g id="Group-5-Copy-4" transform="translate(1.000000, 6.000000)">
		<path id="Rectangle-3_00000170240395748256513640000014059167049987759265_" class="st17" d="M62.4,2638H17.6
			c-4.9,0-6.7,0.6-8.5,1.5c-2,1-3.5,2.6-4.5,4.5c-1,1.8-1.5,3.6-1.5,8.5v28.9c0,4.9,0.6,6.7,1.5,8.5c1,2,2.6,3.5,4.5,4.5
			c1.8,1,3.6,1.5,8.5,1.5h44.9c4.9,0,6.7-0.6,8.5-1.5c2-1,3.5-2.6,4.5-4.5c1-1.8,1.5-3.6,1.5-8.5v-28.9c0-4.9-0.6-6.7-1.5-8.5
			c-1-2-2.6-3.5-4.5-4.5C69.1,2638.6,67.4,2638,62.4,2638z"/>
		<path id="Rectangle-3-Copy-4" class="st17" d="M62.4,2638H17.6c-4.9,0-6.7,0.6-8.5,1.5c-2,1-3.5,2.6-4.5,4.5
			c-1,1.8-1.5,3.6-1.5,8.5v28.9c0,4.9,0.6,6.7,1.5,8.5c1,2,2.6,3.5,4.5,4.5c1.8,1,3.6,1.5,8.5,1.5h44.9c4.9,0,6.7-0.6,8.5-1.5
			c2-1,3.5-2.6,4.5-4.5c1-1.8,1.5-3.6,1.5-8.5v-28.9c0-4.9-0.6-6.7-1.5-8.5c-1-2-2.6-3.5-4.5-4.5C69.1,2638.6,67.4,2638,62.4,2638z"
			/>
		<g id="Page-1" transform="translate(0.000000, 2.000000)">
			<g id="Group-112" transform="translate(0.000000, 1.148238)">
				<path id="Fill-82" class="st46" d="M52.3,2646.8h-2.2c-0.8,0-1.5,0.7-1.5,1.5c0,0.9,0.7,1.5,1.5,1.5h2.2c0.8,0,1.5-0.7,1.5-1.5
					C53.8,2647.5,53.2,2646.8,52.3,2646.8"/>
				<path id="Fill-83" class="st46" d="M52.3,2651.1h-2.2c-0.5,0-0.9,0.4-0.9,0.9c0,0.5,0.4,0.9,0.9,0.9h2.2c0.5,0,0.9-0.4,0.9-0.9
					C53.2,2651.5,52.8,2651.1,52.3,2651.1"/>
				<path id="Fill-84" class="st47" d="M52.3,2666.2h-2.2c-0.5,0-0.9,0.4-0.9,0.9c0,0.5,0.4,0.9,0.9,0.9h2.2c0.5,0,0.9-0.4,0.9-0.9
					C53.2,2666.6,52.8,2666.2,52.3,2666.2"/>
				<path id="Fill-87" class="st48" d="M34.1,2646.8h-2.2c-0.8,0-1.5,0.7-1.5,1.5c0,0.9,0.7,1.5,1.5,1.5h2.2c0.8,0,1.5-0.7,1.5-1.5
					C35.7,2647.5,35,2646.8,34.1,2646.8"/>
				<path id="Fill-88" class="st48" d="M34.1,2651.1h-2.2c-0.5,0-0.9,0.4-0.9,0.9c0,0.5,0.4,0.9,0.9,0.9h2.2c0.5,0,0.9-0.4,0.9-0.9
					C35,2651.5,34.6,2651.1,34.1,2651.1"/>
				<path id="Fill-89" class="st49" d="M33.5,2662.9h-0.9c-0.8,0-1.5,0.7-1.5,1.5v2.1c0,0.8,0.7,1.5,1.5,1.5h0.9
					c0.8,0,1.5-0.7,1.5-1.5v-2.1C35,2663.5,34.3,2662.9,33.5,2662.9"/>
				<path id="Fill-94" class="st50" d="M25.5,2662.9h-0.9c-0.8,0-1.5,0.7-1.5,1.5v2.1c0,0.8,0.7,1.5,1.5,1.5h0.9
					c0.8,0,1.5-0.7,1.5-1.5v-2.1C26.9,2663.5,26.3,2662.9,25.5,2662.9"/>
				<path id="Fill-105" class="st51" d="M45,2640.6h-5.7c-1.2,0-2.1,1-2.1,2.1v26.2c0,1.2,0.9,2.1,2.1,2.1H45c1.2,0,2.1-1,2.1-2.1
					v-26.2C47.1,2641.5,46.2,2640.6,45,2640.6"/>
				<path id="Fill-106" class="st50" d="M42.3,2647.1H42c-0.8,0-1.5,0.7-1.5,1.5v8.3c0,0.8,0.7,1.5,1.5,1.5h0.3
					c0.8,0,1.5-0.7,1.5-1.5v-8.3C43.8,2647.8,43.1,2647.1,42.3,2647.1"/>
				<polygon id="Fill-107" class="st50" points="37.5,2645.2 47.1,2645.2 47.1,2643.9 37.5,2643.9 				"/>
				<path id="Fill-108" class="st50" d="M43.6,2666.2h-2.9c-0.5,0-0.9,0.4-0.9,0.9c0,0.5,0.4,0.9,0.9,0.9h2.9c0.5,0,0.9-0.4,0.9-0.9
					C44.5,2666.6,44.1,2666.2,43.6,2666.2"/>
			</g>
			<g id="Group-145" transform="translate(11.459259, 0.342475)">
				<path id="Fill-113" class="st52" d="M45,2652.2c0,6.7-5.4,12.2-12,12.2c-6.7,0-12-5.4-12-12.2s5.4-12.2,12-12.2
					C39.6,2640,45,2645.4,45,2652.2"/>
				<path id="Fill-115" class="st53" d="M41.9,2661.8c0,8.9-7.2,16.1-16,16.1s-16-7.2-16-16.1s7.2-16.1,16-16.1
					S41.9,2652.8,41.9,2661.8"/>
				<path id="Fill-117" class="st53" d="M46.7,2664.8c0,9.2-7.4,16.7-16.5,16.7c-9.1,0-16.5-7.5-16.5-16.7c0-9.2,7.4-16.7,16.5-16.7
					C39.4,2648.2,46.7,2655.6,46.7,2664.8"/>
				<path id="Fill-125" class="st54" d="M6.5,2670.9c0,3.4,2.8,6.2,6.2,6.2s6.2-2.8,6.2-6.2s-2.8-6.2-6.2-6.2S6.5,2667.5,6.5,2670.9
					"/>
				<path id="Fill-127" class="st53" d="M33.7,2646.6c2.1,2.2,1.9,5.9-0.6,8.4c-2.5,2.4-6.2,2.7-8.3,0.5L33.7,2646.6z"/>
				<path id="Stroke-129" class="st55" d="M33.7,2646.6c2.1,2.2,1.9,5.9-0.6,8.4c-2.5,2.4-6.2,2.7-8.3,0.5L33.7,2646.6z"/>
				<path id="Fill-135" class="st53" d="M33.4,2660.5c-2.9-0.8-4.6-4.1-3.8-7.5s3.9-5.5,6.9-4.7L33.4,2660.5z"/>
				<path id="Stroke-137" class="st56" d="M33.4,2660.5c-2.9-0.8-4.6-4.1-3.8-7.5s3.9-5.5,6.9-4.7L33.4,2660.5z"/>
				<path id="Fill-141" class="st54" d="M38.2,2670.9c0,3.4,2.8,6.2,6.2,6.2s6.2-2.8,6.2-6.2s-2.8-6.2-6.2-6.2
					S38.2,2667.5,38.2,2670.9"/>
			</g>
			<g id="Group-213" transform="translate(14.437037, 6.589681)">
				<path id="Fill-157" class="st57" d="M25.5,2681.6H25c-8.7,0-15.9-7.2-15.9-16v-5.8c0-8.8,7.1-16,15.9-16h0.6
					c8.7,0,15.9,7.2,15.9,16v5.8C41.4,2674.4,34.3,2681.6,25.5,2681.6"/>
				<path id="Fill-159" class="st58" d="M32,2663.5L32,2663.5c-1.2,0-2.1-1-2.1-2.1v-4c0-1.2,1-2.1,2.1-2.1c1.2,0,2.1,1,2.1,2.1v4
					C34.1,2662.6,33.2,2663.5,32,2663.5"/>
				<path id="Fill-161" class="st57" d="M33.3,2663.8h-2.6c-0.9,0-1.7-0.8-1.7-1.7c0-0.9,0.7-1.7,1.7-1.7h2.6c0.9,0,1.7,0.8,1.7,1.7
					C34.9,2663.1,34.2,2663.8,33.3,2663.8"/>
				<path id="Fill-163" class="st58" d="M18.7,2663.5L18.7,2663.5c-1.2,0-2.1-1-2.1-2.1v-4c0-1.2,1-2.1,2.1-2.1c1.2,0,2.1,1,2.1,2.1
					v4C20.8,2662.6,19.9,2663.5,18.7,2663.5"/>
				<path id="Fill-165" class="st57" d="M20,2663.8h-2.6c-0.9,0-1.7-0.8-1.7-1.7c0-0.9,0.7-1.7,1.7-1.7H20c0.9,0,1.7,0.8,1.7,1.7
					C21.7,2663.1,20.9,2663.8,20,2663.8"/>
				<path id="Fill-167" class="st59" d="M12.6,2666.9c0,0.3,0.2,0.5,0.4,0.5c0.2,0,0.4-0.2,0.4-0.5s-0.2-0.5-0.4-0.5
					C12.8,2666.4,12.6,2666.6,12.6,2666.9"/>
				<path id="Fill-169" class="st59" d="M38.1,2667.2c0.2,0.1,0.5,0.1,0.6-0.1c0.1-0.2,0.1-0.5-0.1-0.6c-0.2-0.1-0.5-0.1-0.6,0.1
					C37.8,2666.7,37.9,2667,38.1,2667.2"/>
				<path id="Fill-171" class="st54" d="M26.8,2670.4h-2.9c-1,0-1.8-0.6-1.8-1.3v-7.3c0-0.7,0.8-1.3,1.8-1.3h2.9
					c1,0,1.8,0.6,1.8,1.3v7.3C28.6,2669.8,27.8,2670.4,26.8,2670.4"/>
				<path id="Fill-173" class="st59" d="M14.3,2665.2c0,0.4,0.3,0.7,0.6,0.7c0.4,0,0.6-0.3,0.6-0.7c0-0.4-0.3-0.7-0.6-0.7
					C14.5,2664.6,14.3,2664.9,14.3,2665.2"/>
				<path id="Fill-175" class="st59" d="M11.8,2663.4c0,0.4,0.3,0.7,0.6,0.7c0.4,0,0.6-0.3,0.6-0.7s-0.3-0.7-0.6-0.7
					C12.1,2662.7,11.8,2663,11.8,2663.4"/>
				<path id="Fill-177" class="st59" d="M35.1,2665.2c0,0.4,0.3,0.7,0.6,0.7c0.4,0,0.6-0.3,0.6-0.7c0-0.4-0.3-0.7-0.6-0.7
					C35.4,2664.6,35.1,2664.9,35.1,2665.2"/>
				<path id="Fill-179" class="st59" d="M37.3,2664c0,0.4,0.3,0.7,0.6,0.7c0.4,0,0.6-0.3,0.6-0.7c0-0.4-0.3-0.7-0.6-0.7
					C37.6,2663.3,37.3,2663.6,37.3,2664"/>
				<line id="Stroke-197" class="st60" x1="22.5" y1="2661" x2="28.2" y2="2661"/>
				<path id="Fill-199" class="st53" d="M40.1,2658.2c1.1,0.6,2.2,0.2,2.9-0.7c-0.5-8-6.4-14.6-14-16.1
					C29.6,2648.7,33.9,2655,40.1,2658.2"/>
				<path id="Fill-201" class="st53" d="M32.2,2643.7c-2.5-2-5.7-3.2-9.2-3.2c-8.2,0-14.9,6.7-14.9,15c0,0.7,0.1,1.5,0.2,2.2
					C17.9,2656.1,26.3,2651,32.2,2643.7"/>
				<g id="Group-9" transform="translate(11.853553, 15.557367)">
					<path id="Stroke-207" class="st61" d="M5.6,2638.5c-1.9,0-3.7,0.8-4.9,2.1c-1.3,1.3-2,3-2,5s0.8,3.7,2,5c1.3,1.3,3,2.1,4.9,2.1
						s3.7-0.8,4.9-2.1c1.3-1.3,2-3,2-5s-0.8-3.7-2-5C9.3,2639.3,7.6,2638.5,5.6,2638.5z"/>
					<path id="Combined-Shape_00000134950141609264320640000003739557066831768484_" class="st62" d="M5.6,2640
						c1.3,0,2.5,0.5,3.4,1.2l-7.7,7.7c-0.7-0.9-1.2-2.1-1.2-3.4C0.2,2642.5,2.6,2640,5.6,2640z"/>
				</g>
				<g id="Group-9-Copy" transform="translate(27.853553, 15.557367)">
					<path id="Stroke-207_00000043457738325258405900000013404791738745506462_" class="st61" d="M5.6,2638.5
						c-1.9,0-3.7,0.8-4.9,2.1c-1.3,1.3-2,3-2,5s0.8,3.7,2,5c1.3,1.3,3,2.1,4.9,2.1s3.7-0.8,4.9-2.1c1.3-1.3,2-3,2-5s-0.8-3.7-2-5
						C9.3,2639.3,7.6,2638.5,5.6,2638.5z"/>
					<path id="Combined-Shape_00000068677373453110615750000001705879666138341308_" class="st62" d="M5.6,2640
						c1.3,0,2.5,0.5,3.4,1.2l-7.7,7.7c-0.7-0.9-1.2-2.1-1.2-3.4C0.2,2642.5,2.6,2640,5.6,2640z"/>
				</g>
			</g>
		</g>
		<path id="Combined-Shape-Copy_00000088855335127193944390000010640050826446454960_" class="st63" d="M61.1,2676l0.1,4.3l1.4,12.3
			c-1,0.3-2.3,0.4-4.3,0.4H21.5c-2.3,0-3.7-0.2-4.7-0.5l1.9-11.8l-0.1-4.6l19.6,8c1,0.4,2.1,0.4,3,0L61.1,2676z"/>
		<path id="Combined-Shape_00000159431113177993556260000005535527487228130481_" class="st3" d="M65.8,2677l0.1,4.3l1.8,12.3
			c-1.2,0.3-2.8,0.4-5.2,0.4H17.6c-2.8,0-4.5-0.2-5.7-0.5l2.3-11.8L14,2677l24.5,8.2c0.8,0.3,1.7,0.3,2.5,0L65.8,2677z"/>
		<path id="Combined-Shape_00000103977265881950722350000010329789087706872450_" class="st8" d="M12,2679.4c0.4,0,0.8,0.1,1.2,0.2
			l25.9,8c0.8,0.2,1.6,0.2,2.4,0l25.3-8c2.1-0.7,4.4,0.5,5,2.6c0.1,0.4,0.2,0.8,0.2,1.2l0,7.8c-0.6,0.6-1.3,1.1-2,1.5
			c-1.6,0.9-3.2,1.3-7.5,1.3H17.6c-4.4,0-6-0.5-7.5-1.3c-0.7-0.4-1.4-0.9-2-1.5l0-7.8C8,2681.2,9.8,2679.4,12,2679.4z"/>
		<path id="Combined-Shape_00000133516167008978814730000015784257005430312862_" class="st64" d="M71.8,2682.3
			c0.1,0.4,0.2,0.8,0.2,1.2v7.8c-0.6,0.6-1.3,1.1-2,1.5c-1.6,0.9-3.2,1.3-7.5,1.3l-22.4,0l0-6.2c0.5,0,1,0,1.5-0.2l25.3-8
			C68.9,2679,71.2,2680.1,71.8,2682.3z"/>
	</g>
</g>
<g id="la">
	<g id="Group_00000027577750805810561250000018067125878336095675_" transform="translate(6.000000, 6.000000)">
		<path id="Rectangle-3_00000037679997584005496920000016292641143300166079_" class="st10" d="M57.4,2704H12.6
			c-4.9,0-6.7,0.6-8.5,1.5c-2,1-3.5,2.6-4.5,4.5c-1,1.8-1.5,3.6-1.5,8.5v28.9c0,4.9,0.6,6.7,1.5,8.5c1,2,2.6,3.5,4.5,4.5
			c1.8,1,3.6,1.5,8.5,1.5h44.9c4.9,0,6.7-0.6,8.5-1.5c2-1,3.5-2.6,4.5-4.5c1-1.8,1.5-3.6,1.5-8.5v-28.9c0-4.9-0.6-6.7-1.5-8.5
			c-1-2-2.6-3.5-4.5-4.5C64.1,2704.6,62.4,2704,57.4,2704z"/>
	</g>
	<g id="Group-7_00000096745589104542202180000015506109512107181242_" transform="translate(19.000000, 15.000000)">
		<g id="Group_00000155842038032467382440000015036028261933745540_" transform="translate(0.806452, 0.096774)">
			<g id="Group-5">
				<g id="Group-4_00000170977175704521747450000015774866333993416369_">
					<g id="Group-3_00000031926782023173199960000014293514617155770040_">
						<g id="Group-2_00000063595778347286272840000002492190039585957015_">
							<path id="Shape_00000023275406374295473980000008257754004078597544_" class="st65" d="M6.7,2718.1c-0.2,1-0.3,2.1-0.3,3.2
								c0,1.3,0.2,2.6,0.5,3.9 M12,2732.9c2.5,1.9,5.6,3.1,9,3.1c3.9,0.5,7.1,2.5,9.8,5.9"/>
							<path id="Rectangle_00000016072468287949036190000012130998443376616602_" class="st33" d="M9,2713l0.1-0.6
								c0.3-3.5,3.4-6.2,7-5.9l0.6,0.1l0,0l-0.1,0.6c-0.3,3.5-3.4,6.2-7,5.9L9,2713L9,2713z"/>
							<path id="Rectangle-Copy_00000016033394799304960220000009245546295164997818_" class="st33" d="M5.7,2720.2l-0.6-0.5
								c-2.8-2.2-3.2-6.3-1-9.1l0.5-0.6l0,0l0.6,0.5c2.8,2.2,3.2,6.3,1,9.1L5.7,2720.2L5.7,2720.2z"/>
							<path id="Rectangle-Copy_00000093146001150140339230000007066422259952195225_" class="st33" d="M12.1,2733.9l-0.7,0.2
								c-3.4,1.1-7-0.8-8.1-4.1l-0.2-0.7l0,0l0.7-0.2c3.4-1.1,7,0.8,8.1,4.1L12.1,2733.9L12.1,2733.9z"/>
							<path id="Rectangle-Copy_00000025412930682449355230000016226210418818167738_" class="st33" d="M13.2,2733.8l0.4-0.7
								c1.7-3.1,0.5-7.1-2.7-8.7l-0.7-0.4l0,0l-0.4,0.7c-1.7,3.1-0.5,7.1,2.7,8.7L13.2,2733.8L13.2,2733.8z"/>
							<path id="Rectangle-Copy_00000042713860851477677210000002311682127886703488_" class="st33" d="M5.2,2721.5l0.1-0.8
								c0.5-3.5,3.8-6,7.3-5.5l0.8,0.1l0,0l-0.1,0.8c-0.5,3.5-3.8,6-7.3,5.5L5.2,2721.5L5.2,2721.5z"/>
						</g>
					</g>
				</g>
				
					<g id="Group_00000053513776705730433790000005030373291420580998_" transform="translate(27.000000, 17.935484) scale(-1, 1) translate(-27.000000, -17.935484) translate(11.612903, 0.000000)">
					<g id="Group-4_00000130622035200341188010000013449221710990655650_">
						<g id="Group-3_00000056406587980944949210000002340731333950593693_">
							<g id="Group-2_00000169546098751674103310000004195437050577317248_">
								<path id="Shape_00000073718097513226561970000017299921818479549370_" class="st65" d="M6.7,2718.1c-0.2,1-0.3,2.1-0.3,3.2
									c0,1.3,0.2,2.6,0.5,3.9 M12,2732.9c2.5,1.9,5.6,3.1,9,3.1c3.9,0.5,7.1,2.5,9.8,5.9"/>
								<path id="Rectangle_00000005226510475707709250000002204938200899022238_" class="st33" d="M9,2713l0.1-0.6
									c0.3-3.5,3.4-6.2,7-5.9l0.6,0.1l0,0l-0.1,0.6c-0.3,3.5-3.4,6.2-7,5.9L9,2713L9,2713z"/>
								<path id="Rectangle-Copy_00000105385309679236361980000004285717118263104397_" class="st33" d="M5.7,2720.2l-0.6-0.5
									c-2.8-2.2-3.2-6.3-1-9.1l0.5-0.6l0,0l0.6,0.5c2.8,2.2,3.2,6.3,1,9.1L5.7,2720.2L5.7,2720.2z"/>
								<path id="Rectangle-Copy_00000066515052898990513390000018430835401338879887_" class="st33" d="M12.1,2733.9l-0.7,0.2
									c-3.4,1.1-7-0.8-8.1-4.1l-0.2-0.7l0,0l0.7-0.2c3.4-1.1,7,0.8,8.1,4.1L12.1,2733.9L12.1,2733.9z"/>
								<path id="Rectangle-Copy_00000027599005892387205800000013752629303178808248_" class="st33" d="M13.2,2733.8l0.4-0.7
									c1.7-3.1,0.5-7.1-2.7-8.7l-0.7-0.4l0,0l-0.4,0.7c-1.7,3.1-0.5,7.1,2.7,8.7L13.2,2733.8L13.2,2733.8z"/>
								<path id="Rectangle-Copy_00000093887476912387723830000017069786277845776798_" class="st33" d="M5.2,2721.5l0.1-0.8
									c0.5-3.5,3.8-6,7.3-5.5l0.8,0.1l0,0l-0.1,0.8c-0.5,3.5-3.8,6-7.3,5.5L5.2,2721.5L5.2,2721.5z"/>
							</g>
						</g>
					</g>
				</g>
			</g>
		</g>
	</g>
</g>
<g id="gd">
	<g id="Group_00000098925830454065414350000011469228627770839424_" transform="translate(6.000000, 6.000000)">
		<path id="Rectangle-3_00000057139092854531313270000000919771361250090128_" class="st15" d="M57.4,2770H12.6
			c-4.9,0-6.7,0.6-8.5,1.5c-2,1-3.5,2.6-4.5,4.5c-1,1.8-1.5,3.6-1.5,8.5v28.9c0,4.9,0.6,6.7,1.5,8.5c1,2,2.6,3.5,4.5,4.5
			c1.8,1,3.6,1.5,8.5,1.5h44.9c4.9,0,6.7-0.6,8.5-1.5c2-1,3.5-2.6,4.5-4.5c1-1.8,1.5-3.6,1.5-8.5v-28.9c0-4.9-0.6-6.7-1.5-8.5
			c-1-2-2.6-3.5-4.5-4.5C64.1,2770.6,62.4,2770,57.4,2770z"/>
	</g>
	<g id="Group-10_00000173855830330219089920000000988711414368977087_" transform="translate(6.000000, 6.000000)">
		<g id="Group-6">
			<path class="st66" d="M57.4,2770H12.6c-4.9,0-6.7,0.6-8.5,1.5c-2,1-3.5,2.6-4.5,4.5c-1,1.8-1.5,3.6-1.5,8.5v28.9
				c0,4.9,0.6,6.7,1.5,8.5c1,2,2.6,3.5,4.5,4.5c1.8,1,3.6,1.5,8.5,1.5h44.9c4.9,0,6.7-0.6,8.5-1.5c2-1,3.5-2.6,4.5-4.5
				c1-1.8,1.5-3.6,1.5-8.5v-28.9c0-4.9-0.6-6.7-1.5-8.5c-1-2-2.6-3.5-4.5-4.5C64.1,2770.6,62.4,2770,57.4,2770z"/>
			<defs>
				<filter id="Adobe_OpacityMaskFilter" filterUnits="userSpaceOnUse" x="0.2" y="2772.5" width="69.7" height="53.1">
					<feColorMatrix  type="matrix" values="1 0 0 0 0  0 1 0 0 0  0 0 1 0 0  0 0 0 1 0"/>
				</filter>
			</defs>
			
				<mask maskUnits="userSpaceOnUse" x="0.2" y="2772.5" width="69.7" height="53.1" id="mask-2_00000094620566565056353830000002978330543736344247_">
				<g class="st67">
					<path id="path-1_00000097490104085263408880000010462985717794265774_" class="st6" d="M12.6,2772h44.9c4.4,0,6,0.5,7.5,1.3
						c1.6,0.9,2.9,2.1,3.7,3.7c0.9,1.6,1.3,3.2,1.3,7.5v28.9c0,4.4-0.5,6-1.3,7.5c-0.9,1.6-2.1,2.9-3.7,3.7
						c-1.6,0.9-3.2,1.3-7.5,1.3H12.6c-4.4,0-6-0.5-7.5-1.3c-1.6-0.9-2.9-2.1-3.7-3.7c-0.9-1.6-1.3-3.2-1.3-7.5v-28.9
						c0-4.4,0.5-6,1.3-7.5c0.9-1.6,2.1-2.9,3.7-3.7C6.6,2772.5,8.2,2772,12.6,2772z"/>
				</g>
			</mask>
			<path id="Path_00000106845722506448710570000013530688463274180999_" class="st68" d="M63.5,2772.7c0.5,0.2,1,0.4,1.5,0.6
				c1.6,0.9,2.9,2.1,3.7,3.7c0.6,1.2,1,2.3,1.2,4.6L45.1,2799l24.8,17.4c-0.2,2.3-0.6,3.4-1.2,4.6c-0.9,1.6-2.1,2.9-3.7,3.7
				c-0.5,0.2-0.9,0.5-1.5,0.6l-28-19.6l-28.3,19.8c-0.9-0.2-1.5-0.5-2.2-0.9c-1.6-0.9-2.9-2.1-3.7-3.7c-0.6-1.1-1-2.1-1.2-4l25.8-18
				l-25.8-18c0.2-1.8,0.6-2.9,1.2-4c0.9-1.6,2.1-2.9,3.7-3.7c0.7-0.4,1.3-0.6,2.2-0.9l28.3,19.8L63.5,2772.7z"/>
		</g>
	</g>
</g>
<g id="fi">
	<g id="Group_00000098217462642066631480000006996609912961307067_" transform="translate(6.000000, 6.000000)">
		<path id="Rectangle-3_00000127015501140283251050000010593808713823326867_" class="st7" d="M57.4,2836H12.6
			c-4.9,0-6.7,0.6-8.5,1.5c-2,1-3.5,2.6-4.5,4.5c-1,1.8-1.5,3.6-1.5,8.5v28.9c0,4.9,0.6,6.7,1.5,8.5c1,2,2.6,3.5,4.5,4.5
			c1.8,1,3.6,1.5,8.5,1.5h44.9c4.9,0,6.7-0.6,8.5-1.5c2-1,3.5-2.6,4.5-4.5c1-1.8,1.5-3.6,1.5-8.5v-28.9c0-4.9-0.6-6.7-1.5-8.5
			c-1-2-2.6-3.5-4.5-4.5C64.1,2836.6,62.4,2836,57.4,2836z"/>
		<polygon id="Path_00000106842110219419138270000016296969373417766329_" class="st25" points="31,2859 70,2859 70,2871 31,2871 
			31,2892 19,2892 19,2871 0,2871 0,2859 19,2859 19,2838 31,2838 		"/>
	</g>
</g>
<g id="Yiddish">
	<path id="Rectangle-3_00000129174143597758292180000004485989169383428271_" class="st69" d="M63.4,2908c0.3,0,0.5,0,0.8,0l0,0
		l0.7,0l1,0c0.2,0,0.4,0,0.7,0l0,0l0.6,0.1c1.3,0.1,2.3,0.4,3.1,0.7c3.7,1.8,5.2,3.4,6.2,5.3c0.8,1.8,1,2.5,1.2,3.4
		c0.2,1.3,0.2,1.4,0.2,1.6l0,0l0,0.6l0,0.6l0,1l0,1.2v28.9l0,0.8l0,1.1l0,0.7c0,0.6-0.1,1-0.1,1.5c-0.3,2-0.6,2.8-0.8,3.4
		c-1.6,3.1-3.1,4.6-5,5.6c-2.7,1.1-3.6,1.3-4.5,1.4l-0.2,0l0,0l-0.1,0l-0.6,0.1l-0.6,0l-1,0l-0.7,0l-46,0l-0.8,0l-1,0l-0.9-0.1
		l-0.6-0.1c-1-0.1-1.8-0.3-2.5-0.5c-4.4-2-5.8-3.6-6.8-5.5c-1.1-2.5-1.3-3.5-1.4-4.8l0,0l-0.1-0.6l-0.1-0.9c0-0.2,0-0.5,0-0.7l0,0
		l0-0.7l0-0.8v-28.9c0-0.3,0-0.5,0-0.8l0,0l0-0.7l0-1c0-0.2,0-0.4,0-0.7l0,0l0.1-0.6c0.1-1.3,0.4-2.3,0.7-3.1
		c1.8-3.7,3.4-5.2,5.3-6.2c2.5-1.1,3.5-1.3,4.8-1.4l0,0l0.6-0.1l0.9-0.1c0.2,0,0.5,0,0.7,0l0,0l0.7,0L63.4,2908z"/>
	<path id="Path_00000160150680528199133950000010704583175863562417_" class="st19" d="M28.4,2917c0.2,0,0.3,0.1,0.5,0.2l23.8,17.2
		c1.3,0.9,2,2.4,2,3.9v6.3c0,0.5-0.4,0.8-0.8,0.8c-0.2,0-0.3-0.1-0.5-0.2L36.5,2933c0.1,0.3,0.2,0.7,0.2,1.1v11.3
		c0,0.5-0.4,0.8-0.8,0.8h-3.7c-2.5,0-4.5-2-4.5-4.5v-5.9c0-2.5,2-4.5,4.5-4.5h1.7c0.1,0,0.1,0,0.2,0l-4.4-3.2c-1.3-0.9-2-2.4-2-3.9
		v-6.3C27.6,2917.4,28,2917,28.4,2917z"/>
	<path id="Path_00000047739638677407343300000016334381770049510559_" class="st16" d="M47.3,2915.3l-2.7,3.8
		c-1.6,2.3-1.1,5.5,1.3,7.1l5.5,3.8c0.3,0.2,0.6,0.1,0.8-0.1l2.7-3.8c1.6-2.3,1.1-5.5-1.3-7.1l-5.5-3.8
		C47.8,2915,47.5,2915,47.3,2915.3z"/>
	<path id="Path_00000085929134975045684060000002558615973164556723_" class="st19" d="M46.8,2951.2c1.1,0,1.9,0.9,1.9,2
		c0,1.1-0.9,2-1.9,2l-3,0l0.4,2.6c0.2,1.2-0.6,2.3-1.7,2.4c-0.1,0-0.2,0-0.3,0c-1.1,0-2-1-2-2.1c0-0.1,0-0.2,0-0.3l0.4-2.6l-3,0
		c-1.1,0-1.9-0.9-1.9-2c0-1.1,0.9-2,1.9-2H46.8z"/>
</g>
<g>
	<path class="st10" d="M63.4,2974H18.6c-4.9,0-6.7,0.6-8.5,1.5c-2,1-3.5,2.6-4.5,4.5c-1,1.8-1.5,3.6-1.5,8.5v28.9
		c0,4.9,0.6,6.7,1.5,8.5c1,2,2.6,3.5,4.5,4.5c1.8,1,3.6,1.5,8.5,1.5h44.9c4.9,0,6.7-0.6,8.5-1.5c2-1,3.5-2.6,4.5-4.5
		c1-1.8,1.5-3.6,1.5-8.5v-28.9c0-4.9-0.6-6.7-1.5-8.5c-1-2-2.6-3.5-4.5-4.5C70.1,2974.6,68.4,2974,63.4,2974z"/>
	<path class="st70" d="M6,2991.7c0-5.5,0-8.2,1.1-10.3c0.9-1.8,2.4-3.3,4.3-4.3c2.1-1.1,4.8-1.1,10.3-1.1h38.6c5.5,0,8.2,0,10.3,1.1
		c1.8,0.9,3.3,2.4,4.3,4.3c1.1,2.1,1.1,4.8,1.1,10.3v22.6c0,5.5,0,8.2-1.1,10.3c-0.9,1.8-2.4,3.3-4.3,4.3c-2.1,1.1-4.8,1.1-10.3,1.1
		H21.7c-5.5,0-8.2,0-10.3-1.1c-1.8-0.9-3.3-2.4-4.3-4.3c-1.1-2.1-1.1-4.8-1.1-10.3V2991.7z"/>
	<path class="st9" d="M21.7,3030h38.6c5.5,0,8.2,0,10.3-1.1c1.8-0.9,3.3-2.4,4.3-4.3c1.1-2.1,1.1-4.8,1.1-10.3V3003H6v11.3
		c0,5.5,0,8.2,1.1,10.3c0.9,1.8,2.4,3.3,4.3,4.3C13.4,3030,16.2,3030,21.7,3030z"/>
	<path class="st3" d="M31.5,2998.5c0-1.7,1.3-3,3-3h13c1.7,0,3,1.3,3,3v9c0,1.7-1.3,3-3,3h-13c-1.7,0-3-1.3-3-3V2998.5z"/>
	<path class="st71" d="M43.7,2998.5c0.7-0.3,1.5,0,1.6,0.7c0,0.2,0,0.5,0,0.7c-0.1,0.7-0.3,1.4-0.7,2c-0.4,0.6-0.9,1.1-1.6,1.4
		c-0.6,0.3-1.3,0.5-2,0.5s-1.4-0.2-2-0.5c-0.6-0.3-1.2-0.8-1.5-1.4c-0.4-0.6-0.6-1.3-0.7-2c0-0.2,0-0.5,0-0.7
		c0.1-0.8,0.9-1.1,1.6-0.7l2.7,1.4L43.7,2998.5z"/>
	<path class="st70" d="M40,3008c0.5-0.3,0.5-0.9,0.1-1.3l-4.5-4.5c-0.4-0.4-1-0.4-1.3,0.1c-0.4,0.7-0.6,1.4-0.6,2.2
		c0,1.1,0.4,2.2,1.2,2.9s1.8,1.2,2.9,1.2C38.6,3008.6,39.3,3008.4,40,3008z"/>
	<path class="st70" d="M42,3008c-0.5-0.3-0.5-0.9-0.1-1.3l4.5-4.5c0.4-0.4,1-0.4,1.3,0.1c0.4,0.7,0.6,1.4,0.6,2.2
		c0,1.1-0.4,2.2-1.2,2.9c-0.8,0.8-1.8,1.2-2.9,1.2C43.4,3008.6,42.7,3008.4,42,3008z"/>
	<path class="st9" d="M40,3006.7c0.4,0.4,0.4,1-0.1,1.3c-0.7,0.4-1.4,0.6-2.2,0.6c-0.6,0-1.2-0.1-1.8-0.4c0-0.1,0-0.1,0-0.2
		c0-1.5,1-2.7,2.4-2.9L40,3006.7z"/>
	<path class="st9" d="M43.6,3005.1l-1.6,1.6c-0.4,0.4-0.4,1,0.1,1.3c0.7,0.4,1.4,0.6,2.2,0.6c0.6,0,1.2-0.1,1.8-0.4
		c0-0.1,0-0.1,0-0.2C46,3006.5,45,3005.3,43.6,3005.1z"/>
</g>
<g>
	<path class="st10" d="M63.4,3040H18.6c-4.9,0-6.7,0.6-8.5,1.5c-2,1-3.5,2.6-4.5,4.5c-1,1.8-1.5,3.6-1.5,8.5v28.9
		c0,4.9,0.6,6.7,1.5,8.5c1,2,2.6,3.5,4.5,4.5c1.8,1,3.6,1.5,8.5,1.5h44.9c4.9,0,6.7-0.6,8.5-1.5c2-1,3.5-2.6,4.5-4.5
		c1-1.8,1.5-3.6,1.5-8.5v-28.9c0-4.9-0.6-6.7-1.5-8.5c-1-2-2.6-3.5-4.5-4.5C70.1,3040.6,68.4,3040,63.4,3040z"/>
	<path class="st8" d="M6,3057.7c0-5.5,0-8.2,1.1-10.3c0.9-1.8,2.4-3.3,4.3-4.3c2.1-1.1,4.8-1.1,10.3-1.1h38.7c5.5,0,8.2,0,10.3,1.1
		c1.8,0.9,3.3,2.4,4.3,4.3c1.1,2.1,1.1,4.8,1.1,10.3v22.7c0,5.5,0,8.2-1.1,10.3c-0.9,1.8-2.4,3.3-4.3,4.3c-2.1,1.1-4.8,1.1-10.3,1.1
		H21.7c-5.5,0-8.2,0-10.3-1.1c-1.8-0.9-3.3-2.4-4.3-4.3c-1.1-2.1-1.1-4.8-1.1-10.3V3057.7z"/>
	<path class="st1" d="M76.1,3069v11.3c0,5.5,0,8.2-1.1,10.3c-0.9,1.8-2.4,3.3-4.3,4.3c-2.1,1.1-4.8,1.1-10.3,1.1H21.7
		c-5.5,0-8.2,0-10.3-1.1c-1.8-0.9-3.3-2.4-4.3-4.3c-1.1-2.1-1.1-4.8-1.1-10.3V3069H76.1z"/>
	<path class="st19" d="M7.1,3047.3c-1.1,2.1-1.1,4.8-1.1,10.3v22.7c0,5.5,0,8.2,1.1,10.3c0.5,1,1.2,2,2.1,2.8c0,0,0.1,0,0.1,0.1
		L41,3069l-31.8-24.5c0,0-0.1,0.1-0.1,0.1C8.3,3045.4,7.6,3046.3,7.1,3047.3z"/>
	<path class="st11" d="M33.4,3066.8c0.6-0.5,1.6-0.2,1.6,0.6l0,0.1c0,0.3,0.2,0.6,0.5,0.8l0.1,0c0.7,0.4,0.6,1.4-0.1,1.7l-0.1,0
		c-0.3,0.1-0.5,0.4-0.6,0.7l0,0.1c-0.2,0.8-1.2,1-1.7,0.4l0-0.1c-0.2-0.2-0.5-0.4-0.8-0.3l-0.1,0c-0.8,0.1-1.3-0.8-0.9-1.5l0-0.1
		c0.2-0.3,0.2-0.6,0.1-0.9l0-0.1c-0.3-0.7,0.3-1.5,1.1-1.3l0.1,0C32.8,3067.1,33.1,3067,33.4,3066.8L33.4,3066.8z"/>
	<path class="st11" d="M9.8,3083.4c0.2-0.8,1.1-1.1,1.7-0.5l0,0.1c0.2,0.2,0.5,0.4,0.8,0.3l0.1,0c0.8-0.1,1.4,0.8,1,1.5l0,0.1
		c-0.2,0.3-0.2,0.6,0,0.9l0,0.1c0.3,0.7-0.3,1.5-1.1,1.4l-0.1,0c-0.3-0.1-0.6,0-0.9,0.2l-0.1,0.1c-0.6,0.5-1.5,0.2-1.6-0.6l0-0.1
		c0-0.3-0.2-0.6-0.5-0.8l-0.1,0c-0.7-0.4-0.7-1.4,0.1-1.7l0.1,0C9.5,3084.1,9.7,3083.8,9.8,3083.4L9.8,3083.4z"/>
	<path class="st11" d="M9.8,3054c0.2,0.8,1.1,1.1,1.7,0.5l0-0.1c0.2-0.2,0.5-0.4,0.8-0.3l0.1,0c0.8,0.1,1.4-0.8,1-1.5l0-0.1
		c-0.2-0.3-0.2-0.6,0-0.9l0-0.1c0.3-0.7-0.3-1.5-1.1-1.4l-0.1,0c-0.3,0.1-0.6,0-0.9-0.2l-0.1-0.1c-0.6-0.5-1.5-0.2-1.6,0.6l0,0.1
		c0,0.3-0.2,0.6-0.5,0.8l-0.1,0c-0.7,0.4-0.7,1.4,0.1,1.7l0.1,0C9.5,3053.4,9.7,3053.7,9.8,3054L9.8,3054z"/>
	<path class="st11" d="M17.5,3061.1c0.2-1,1.7-1,1.9,0l0.5,2.3c0.1,0.7,0.9,1,1.5,0.6l2-1.3c0.9-0.6,1.9,0.5,1.3,1.3l-1.3,2
		c-0.4,0.6,0,1.3,0.6,1.5l2.3,0.5c1,0.2,1,1.7,0,1.9l-2.3,0.5c-0.7,0.1-1,0.9-0.6,1.5l1.3,2c0.6,0.9-0.5,1.9-1.3,1.3l-2-1.3
		c-0.6-0.4-1.3,0-1.5,0.6l-0.5,2.3c-0.2,1-1.7,1-1.9,0l-0.5-2.3c-0.1-0.7-0.9-1-1.5-0.6l-2,1.3c-0.9,0.6-1.9-0.5-1.3-1.3l1.3-2
		c0.4-0.6,0-1.3-0.6-1.5l-2.3-0.5c-1-0.2-1-1.7,0-1.9l2.3-0.5c0.7-0.1,1-0.9,0.6-1.5l-1.3-2c-0.6-0.9,0.5-1.9,1.3-1.3l2,1.3
		c0.6,0.4,1.3,0,1.5-0.6L17.5,3061.1z"/>
</g>
<g>
	<path class="st66" d="M63.4,3106H18.6c-4.9,0-6.7,0.6-8.5,1.5c-2,1-3.5,2.6-4.5,4.5c-1,1.8-1.5,3.6-1.5,8.5v28.9
		c0,4.9,0.6,6.7,1.5,8.5c1,2,2.6,3.5,4.5,4.5c1.8,1,3.6,1.5,8.5,1.5h44.9c4.9,0,6.7-0.6,8.5-1.5c2-1,3.5-2.6,4.5-4.5
		c1-1.8,1.5-3.6,1.5-8.5v-28.9c0-4.9-0.6-6.7-1.5-8.5c-1-2-2.6-3.5-4.5-4.5C70.1,3106.6,68.4,3106,63.4,3106z"/>
	<path class="st9" d="M6,3123.7c0-5.5,0-8.2,1.1-10.3c0.9-1.8,2.4-3.3,4.3-4.3c2.1-1.1,4.8-1.1,10.3-1.1h38.6c5.5,0,8.2,0,10.3,1.1
		c1.8,0.9,3.3,2.4,4.3,4.3c1.1,2.1,1.1,4.8,1.1,10.3v22.6c0,5.5,0,8.2-1.1,10.3c-0.9,1.8-2.4,3.3-4.3,4.3c-2.1,1.1-4.8,1.1-10.3,1.1
		H21.7c-5.5,0-8.2,0-10.3-1.1c-1.8-0.9-3.3-2.4-4.3-4.3c-1.1-2.1-1.1-4.8-1.1-10.3V3123.7z"/>
	<path class="st8" d="M76,3135v11.3c0,5.5,0,8.2-1.1,10.3c-0.9,1.8-2.4,3.3-4.3,4.3c-2.1,1.1-4.8,1.1-10.3,1.1H21.7
		c-5.5,0-8.2,0-10.3-1.1c-1.8-0.9-3.3-2.4-4.3-4.3c-1.1-2.1-1.1-4.8-1.1-10.3V3135H76z"/>
	<path class="st38" d="M6.2,3116.8c-0.2,1.7-0.2,3.9-0.2,6.9v22.6c0,3,0,5.2,0.2,6.9c0.2,1.7,0.6,2.8,1.1,3.8c0.5,1,1.2,1.8,2,2.5
		L41,3135l-31.7-24.5c-0.8,0.7-1.4,1.5-2,2.5C6.8,3114,6.4,3115,6.2,3116.8z"/>
	<path class="st16" d="M76,3124.9v20.2H32.4v-20.2H76z"/>
	<path class="st16" d="M10,3109.9c0.4-0.3,0.9-0.6,1.3-0.8c2-1,4.6-1.1,9.7-1.1c0,0,0,0,0,0l23.5,17.6l-10.3,13.7l-26.4-19.8
		c-0.3-3.6-0.3-5.6,0.5-7.2C8.7,3111.4,9.3,3110.6,10,3109.9z"/>
	<path class="st72" d="M6.1,3152.8C6,3151.5,6,3150,6,3148l20.4-15.3l2.4,3.1L6.1,3152.8z"/>
	<path class="st73" d="M6,3121.9c0-2,0-3.5,0.1-4.8l24.2,18.1l-2.4,3.1L6,3121.9z"/>
	<path class="st16" d="M14.6,3161.8c1.6,0.2,3.6,0.2,6.2,0.2l22.9-17.2l-2.4-3.1L14.6,3161.8C14.6,3161.8,14.6,3161.8,14.6,3161.8z"
		/>
	<path class="st71" d="M76,3128.8v12.3H32.4v-12.3H76z"/>
	<path class="st74" d="M7.1,3113.4c-0.5,1-0.8,2.2-0.9,3.7l28.7,21.5l7.4-9.8l-27.5-20.6c-1.4,0.1-2.4,0.4-3.4,0.9
		C9.5,3110,8,3111.5,7.1,3113.4z"/>
	<path class="st74" d="M14.6,3161.8c-1.3-0.1-2.3-0.4-3.2-0.9c-1.8-0.9-3.3-2.4-4.3-4.3c-0.5-1-0.8-2.2-0.9-3.8l28.7-21.5l7.4,9.8
		L14.6,3161.8z"/>
</g>
</svg>
